STARTFONT 2.1
FONT -FontForge-Indie Flower-Book-R-Normal--28-280-72-72-P-129-ISO10646-1
SIZE 28 72 72
FONTBOUNDINGBOX 34 41 -4 -14
COMMENT "Generated by fontforge, http://fontforge.sourceforge.net"
COMMENT "Copyright (c) 2010, Kimberly Geswein (kimberlygeswein.com)"
STARTPROPERTIES 39
FOUNDRY "FontForge"
FAMILY_NAME "Indie Flower"
WEIGHT_NAME "Book"
SLANT "R"
SETWIDTH_NAME "Normal"
ADD_STYLE_NAME ""
PIXEL_SIZE 28
POINT_SIZE 280
RESOLUTION_X 72
RESOLUTION_Y 72
SPACING "P"
AVERAGE_WIDTH 129
CHARSET_REGISTRY "ISO10646"
CHARSET_ENCODING "1"
FONTNAME_REGISTRY ""
CHARSET_COLLECTIONS "ISO8859-2 ISO8859-9 ISO8859-4 ISO10646-1"
FONT_NAME "IndieFlower"
FACE_NAME "Indie Flower"
COPYRIGHT "Copyright (c) 2010, Kimberly Geswein (kimberlygeswein.com)"
FONT_VERSION "1.001 2010"
FONT_ASCENT 22
FONT_DESCENT 6
UNDERLINE_POSITION -3
UNDERLINE_THICKNESS 2
X_HEIGHT 10
CAP_HEIGHT 14
RAW_ASCENT 799
RAW_DESCENT 200
NORM_SPACE 11
RELATIVE_WEIGHT 40
RELATIVE_SETWIDTH 50
SUPERSCRIPT_X 0
SUPERSCRIPT_Y 13
SUPERSCRIPT_SIZE 18
SUBSCRIPT_X 0
SUBSCRIPT_Y 3
SUBSCRIPT_SIZE 18
AVG_LOWERCASE_WIDTH 126
AVG_UPPERCASE_WIDTH 151
ENDPROPERTIES
CHARS 356
STARTCHAR space
ENCODING 32
SWIDTH 375 0
DWIDTH 11 0
BBX 1 1 0 0
BITMAP
00
ENDCHAR
STARTCHAR exclam
ENCODING 33
SWIDTH 149 0
DWIDTH 4 0
BBX 4 23 0 0
BITMAP
40
40
40
40
40
40
40
60
60
60
60
60
60
60
60
60
00
00
00
00
60
F0
60
ENDCHAR
STARTCHAR quotedbl
ENCODING 34
SWIDTH 234 0
DWIDTH 7 0
BBX 6 8 0 14
BITMAP
88
C8
CC
4C
4C
6C
6C
2C
ENDCHAR
STARTCHAR numbersign
ENCODING 35
SWIDTH 768 0
DWIDTH 22 0
BBX 21 14 0 0
BITMAP
008800
008800
00CC00
00C400
00FFE0
0FFC30
7E4400
E047F0
007FF8
0FF600
386600
006600
004600
000400
ENDCHAR
STARTCHAR dollar
ENCODING 36
SWIDTH 581 0
DWIDTH 16 0
BBX 16 26 0 0
BITMAP
0040
00D0
0090
0090
00F0
03F8
079C
0C90
0C90
0590
03B0
01B0
01F0
01B8
01EC
0166
0143
C143
E143
7343
1F42
07C6
03FC
03F8
03C0
0240
ENDCHAR
STARTCHAR percent
ENCODING 37
SWIDTH 636 0
DWIDTH 18 0
BBX 17 17 0 0
BITMAP
000200
000400
3C0C00
661800
C21000
C22000
C26000
6E4000
38C000
018F00
019980
031180
063180
062180
0C2300
0C3E00
081C00
ENDCHAR
STARTCHAR ampersand
ENCODING 38
SWIDTH 457 0
DWIDTH 13 0
BBX 12 19 0 0
BITMAP
0E00
0E00
0E00
0E00
0E00
0E00
0C00
0C00
0CF0
1CC0
1CC0
3480
2380
6380
4300
C380
C680
DC40
7820
ENDCHAR
STARTCHAR quotesingle
ENCODING 39
SWIDTH 102 0
DWIDTH 3 0
BBX 1 6 1 14
BITMAP
80
80
80
80
80
80
ENDCHAR
STARTCHAR parenleft
ENCODING 40
SWIDTH 421 0
DWIDTH 12 0
BBX 10 17 1 -1
BITMAP
03C0
0640
0C00
1800
3000
6000
6000
C000
C000
8000
8000
8000
8000
C000
E000
7800
3E00
ENDCHAR
STARTCHAR parenright
ENCODING 41
SWIDTH 290 0
DWIDTH 8 0
BBX 8 19 0 -2
BITMAP
40
38
1C
0C
06
06
02
03
03
02
02
06
04
0C
18
38
70
E0
80
ENDCHAR
STARTCHAR asterisk
ENCODING 42
SWIDTH 412 0
DWIDTH 12 0
BBX 11 11 0 6
BITMAP
0060
64C0
3F80
1FC0
2FC0
7F00
B380
3380
23C0
0300
0200
ENDCHAR
STARTCHAR plus
ENCODING 43
SWIDTH 459 0
DWIDTH 13 0
BBX 12 12 0 0
BITMAP
0400
0C00
0400
0600
0600
1FF0
FFF0
0600
0200
0200
0200
0200
ENDCHAR
STARTCHAR comma
ENCODING 44
SWIDTH 130 0
DWIDTH 4 0
BBX 3 9 0 -5
BITMAP
40
60
60
60
60
40
C0
C0
C0
ENDCHAR
STARTCHAR hyphen
ENCODING 45
SWIDTH 375 0
DWIDTH 11 0
BBX 9 2 0 7
BITMAP
3F80
FF80
ENDCHAR
STARTCHAR period
ENCODING 46
SWIDTH 204 0
DWIDTH 6 0
BBX 4 5 1 0
BITMAP
60
70
F0
F0
60
ENDCHAR
STARTCHAR slash
ENCODING 47
SWIDTH 309 0
DWIDTH 9 0
BBX 8 21 0 0
BITMAP
01
01
03
03
02
02
06
06
04
0C
0C
18
18
18
30
30
20
60
60
C0
C0
ENDCHAR
STARTCHAR zero
ENCODING 48
SWIDTH 430 0
DWIDTH 12 0
BBX 10 12 1 0
BITMAP
1E00
3F00
6180
C0C0
80C0
8040
8040
8040
80C0
4180
3F80
1E00
ENDCHAR
STARTCHAR one
ENCODING 49
SWIDTH 318 0
DWIDTH 9 0
BBX 8 17 0 0
BITMAP
01
01
01
03
03
07
0F
1F
37
66
66
86
06
06
06
04
04
ENDCHAR
STARTCHAR two
ENCODING 50
SWIDTH 497 0
DWIDTH 14 0
BBX 13 15 0 0
BITMAP
01C0
0360
0230
0230
0030
0010
0030
0030
0030
0020
0060
F8C0
FFC0
7FF8
0038
ENDCHAR
STARTCHAR three
ENCODING 51
SWIDTH 430 0
DWIDTH 12 0
BBX 10 15 1 0
BITMAP
7C00
FF00
8100
0100
0300
1E00
7C00
1F00
0380
00C0
80C0
C040
6040
3FC0
0F80
ENDCHAR
STARTCHAR four
ENCODING 52
SWIDTH 412 0
DWIDTH 12 0
BBX 10 17 1 0
BITMAP
4000
4000
C000
C000
8080
80C0
80C0
81C0
8180
C380
FF80
7C80
1080
00C0
00C0
00C0
00C0
ENDCHAR
STARTCHAR five
ENCODING 53
SWIDTH 571 0
DWIDTH 16 0
BBX 15 18 0 0
BITMAP
07FE
0200
0200
0600
0C00
0C00
1F00
0FC0
0070
0018
0008
000C
800C
400C
C00C
6038
3FF0
0FC0
ENDCHAR
STARTCHAR six
ENCODING 54
SWIDTH 440 0
DWIDTH 12 0
BBX 11 17 1 0
BITMAP
01C0
07E0
0C40
1800
3000
6000
4000
C000
FF80
C1C0
80C0
8040
8060
C040
E0C0
7F80
3E00
ENDCHAR
STARTCHAR seven
ENCODING 55
SWIDTH 412 0
DWIDTH 12 0
BBX 10 15 1 0
BITMAP
FE00
7E00
0200
0200
0200
0200
0600
7FC0
06C0
0600
0400
0400
0C00
0C00
0C00
ENDCHAR
STARTCHAR eight
ENCODING 56
SWIDTH 375 0
DWIDTH 11 0
BBX 10 16 0 0
BITMAP
1E00
3F00
6300
C300
4200
6600
3C00
1C00
3600
2300
6180
6080
60C0
30C0
1980
0F80
ENDCHAR
STARTCHAR nine
ENCODING 57
SWIDTH 300 0
DWIDTH 8 0
BBX 8 17 0 0
BITMAP
3C
66
43
C3
C3
C3
67
7F
1F
02
02
02
02
02
02
02
02
ENDCHAR
STARTCHAR colon
ENCODING 58
SWIDTH 84 0
DWIDTH 2 0
BBX 1 7 1 2
BITMAP
80
80
00
00
00
00
80
ENDCHAR
STARTCHAR semicolon
ENCODING 59
SWIDTH 128 0
DWIDTH 4 0
BBX 3 16 0 -5
BITMAP
40
C0
40
00
00
00
00
20
60
60
60
60
C0
C0
C0
80
ENDCHAR
STARTCHAR less
ENCODING 60
SWIDTH 487 0
DWIDTH 14 0
BBX 13 12 0 0
BITMAP
0010
0038
0060
01C0
0300
0E00
1800
3000
6000
FF80
1FE0
0030
ENDCHAR
STARTCHAR equal
ENCODING 61
SWIDTH 524 0
DWIDTH 15 0
BBX 13 7 1 4
BITMAP
7FF0
FFF8
0000
0000
0000
0000
FFF0
ENDCHAR
STARTCHAR greater
ENCODING 62
SWIDTH 403 0
DWIDTH 11 0
BBX 10 13 1 0
BITMAP
C000
E000
7800
1F80
01C0
00C0
0180
0300
0E00
1800
7000
E000
8000
ENDCHAR
STARTCHAR question
ENCODING 63
SWIDTH 272 0
DWIDTH 8 0
BBX 7 24 0 0
BITMAP
78
DC
06
06
02
06
06
06
0C
1C
18
38
30
30
3E
00
00
00
00
00
00
00
06
06
ENDCHAR
STARTCHAR at
ENCODING 64
SWIDTH 815 0
DWIDTH 23 0
BBX 21 25 1 0
BITMAP
01F000
07BE00
0C0700
1001C0
200060
400030
400018
801018
80FE08
818308
830188
820708
860618
840618
840610
C40630
460FE0
6339C0
21F000
300000
180000
0C0000
070030
01C3F0
00FF80
ENDCHAR
STARTCHAR A
ENCODING 65
SWIDTH 562 0
DWIDTH 16 0
BBX 14 21 1 0
BITMAP
0F80
30C0
2060
6020
4030
4010
4018
4018
4008
C008
C008
C00C
FFFC
C00C
400C
C00C
400C
400C
400C
600C
6008
ENDCHAR
STARTCHAR B
ENCODING 66
SWIDTH 741 0
DWIDTH 21 0
BBX 19 19 1 0
BITMAP
3FE000
DF3800
0C0800
040C00
040C00
061800
067000
02F000
027C00
030E00
030380
0300C0
030040
030060
010060
030060
070060
03FFC0
007F80
ENDCHAR
STARTCHAR C
ENCODING 67
SWIDTH 515 0
DWIDTH 14 0
BBX 13 18 1 0
BITMAP
03C0
0FC0
1C40
3080
2000
4000
C000
8000
8000
8000
8000
8000
8000
8000
C000
6078
7FF0
1E00
ENDCHAR
STARTCHAR D
ENCODING 68
SWIDTH 741 0
DWIDTH 21 0
BBX 19 18 1 0
BITMAP
0C0000
FFE000
81F800
018E00
018700
008180
0080C0
0080C0
00C060
00C060
00C060
00C060
00C060
00C0E0
0040C0
000380
03DF00
01FC00
ENDCHAR
STARTCHAR E
ENCODING 69
SWIDTH 524 0
DWIDTH 15 0
BBX 12 17 1 0
BITMAP
FFF0
8010
C000
C000
C000
C000
C3E0
FF80
C000
8000
8000
8000
8000
8000
8000
FFF0
7FE0
ENDCHAR
STARTCHAR F
ENCODING 70
SWIDTH 514 0
DWIDTH 14 0
BBX 18 17 -1 0
BITMAP
07F800
7FFF80
8E03C0
040000
040000
040000
040000
060000
0FFC00
3FF800
060000
020000
020000
030000
030000
030000
030000
ENDCHAR
STARTCHAR G
ENCODING 71
SWIDTH 571 0
DWIDTH 16 0
BBX 15 17 1 -2
BITMAP
0030
01F8
0704
0C00
3000
6000
4000
C3F8
81FC
800C
800C
C00C
601C
7FFC
1E0C
000C
0006
ENDCHAR
STARTCHAR H
ENCODING 72
SWIDTH 524 0
DWIDTH 15 0
BBX 14 19 0 0
BITMAP
0008
4008
4008
4018
4018
6018
6018
6018
6078
21F8
2708
7C08
F008
3008
3008
3008
300C
300C
100C
ENDCHAR
STARTCHAR I
ENCODING 73
SWIDTH 167 0
DWIDTH 5 0
BBX 4 16 0 0
BITMAP
80
C0
40
40
60
60
20
20
20
30
30
30
30
30
10
10
ENDCHAR
STARTCHAR J
ENCODING 74
SWIDTH 439 0
DWIDTH 12 0
BBX 11 20 1 0
BITMAP
0080
0080
0080
00C0
00C0
00C0
0040
0040
0040
0060
8060
8060
8060
C060
4060
2060
1060
0C40
07C0
0380
ENDCHAR
STARTCHAR K
ENCODING 75
SWIDTH 468 0
DWIDTH 13 0
BBX 11 16 1 0
BITMAP
8380
8600
8E00
8C00
9800
B000
E000
C000
E000
F000
D800
CC00
C700
C180
40E0
4060
ENDCHAR
STARTCHAR L
ENCODING 76
SWIDTH 346 0
DWIDTH 10 0
BBX 8 15 1 0
BITMAP
40
C0
C0
C0
C0
C0
80
80
80
80
80
80
C0
FF
3F
ENDCHAR
STARTCHAR M
ENCODING 77
SWIDTH 534 0
DWIDTH 15 0
BBX 13 17 1 0
BITMAP
8010
C030
E030
6070
70F0
5FF0
4FB0
4030
4030
4010
4010
4018
4018
4018
4018
4018
0018
ENDCHAR
STARTCHAR N
ENCODING 78
SWIDTH 609 0
DWIDTH 17 0
BBX 15 15 1 0
BITMAP
8000
C010
C018
C01C
E00C
E00C
E006
F006
D002
9802
8C02
8606
C70C
C1FC
8060
ENDCHAR
STARTCHAR O
ENCODING 79
SWIDTH 609 0
DWIDTH 17 0
BBX 16 14 0 0
BITMAP
0400
1FC0
30F0
6038
400C
4006
C003
4003
4001
6001
3003
3806
1F7C
07F0
ENDCHAR
STARTCHAR P
ENCODING 80
SWIDTH 627 0
DWIDTH 18 0
BBX 16 17 1 0
BITMAP
3E00
FFF0
807C
800E
0203
0203
0201
0203
0203
030E
03F8
03E0
0300
0300
0100
0100
0100
ENDCHAR
STARTCHAR Q
ENCODING 81
SWIDTH 642 0
DWIDTH 18 0
BBX 17 18 1 -3
BITMAP
0F0000
3FC000
60F000
407800
C04C00
804600
800600
800300
810100
C08100
C0C100
606300
307E00
1FFC00
07F800
000400
000300
000180
ENDCHAR
STARTCHAR R
ENCODING 82
SWIDTH 579 0
DWIDTH 16 0
BBX 16 18 0 -1
BITMAP
7FF0
C038
800C
9006
1806
180E
187C
0FF0
0F00
0C00
0E00
0F00
0D80
04C0
0460
0438
041C
0007
ENDCHAR
STARTCHAR S
ENCODING 83
SWIDTH 627 0
DWIDTH 18 0
BBX 16 17 1 0
BITMAP
03E0
0F78
100C
1000
1000
1800
0E00
0380
01E0
0078
801C
8006
8003
C003
6003
3E0E
07FC
ENDCHAR
STARTCHAR T
ENCODING 84
SWIDTH 581 0
DWIDTH 16 0
BBX 19 17 0 0
BITMAP
FFFF00
00EFE0
004040
004000
004000
004000
004000
006000
006000
006000
006000
006000
002000
003000
003000
003000
001800
ENDCHAR
STARTCHAR U
ENCODING 85
SWIDTH 571 0
DWIDTH 16 0
BBX 15 15 1 0
BITMAP
C010
C030
8030
8030
8030
8010
8010
8018
C018
C018
401C
603C
30EC
3F86
1F00
ENDCHAR
STARTCHAR V
ENCODING 86
SWIDTH 421 0
DWIDTH 12 0
BBX 10 15 1 0
BITMAP
8040
8040
C0C0
C0C0
60C0
60C0
7080
3180
3980
1980
1900
0F00
0F00
0600
0600
ENDCHAR
STARTCHAR W
ENCODING 87
SWIDTH 703 0
DWIDTH 20 0
BBX 19 14 0 0
BITMAP
400100
C00180
C000C0
C000C0
C000C0
C08060
C08060
40C060
40C020
60C020
61E060
3330C0
3E1F80
0C0F00
ENDCHAR
STARTCHAR X
ENCODING 88
SWIDTH 534 0
DWIDTH 15 0
BBX 14 17 1 -2
BITMAP
4000
600C
3038
3060
18C0
0980
0F00
0E00
0E00
1B00
3300
6180
60C0
C060
8020
8000
8000
ENDCHAR
STARTCHAR Y
ENCODING 89
SWIDTH 403 0
DWIDTH 11 0
BBX 11 18 0 0
BITMAP
C000
4060
6060
6060
3040
18C0
0FC0
0380
0180
0180
0100
0300
0300
0200
0200
0200
0200
0200
ENDCHAR
STARTCHAR Z
ENCODING 90
SWIDTH 571 0
DWIDTH 16 0
BBX 16 17 0 0
BITMAP
7F80
E0C0
0060
0020
0020
0020
0060
0060
0FFE
1FC0
0180
0100
0300
0600
060E
07FF
07F0
ENDCHAR
STARTCHAR bracketleft
ENCODING 91
SWIDTH 477 0
DWIDTH 13 0
BBX 14 23 1 -3
BITMAP
0070
07E0
3E00
F000
8000
C000
C000
C000
6000
6000
6000
6000
2000
2000
2000
2000
3000
3000
1000
1000
1BFC
1FFC
1000
ENDCHAR
STARTCHAR backslash
ENCODING 92
SWIDTH 430 0
DWIDTH 12 0
BBX 12 15 0 0
BITMAP
C000
4000
6000
3000
1800
0C00
0E00
0700
0300
0180
01C0
00E0
0060
0030
0020
ENDCHAR
STARTCHAR bracketright
ENCODING 93
SWIDTH 430 0
DWIDTH 12 0
BBX 12 26 0 -3
BITMAP
FF00
1F80
00C0
00C0
0040
0060
0060
0060
0060
0060
0020
0020
0020
0020
0020
0020
0020
0020
0020
0020
0020
0020
0020
0030
3FF0
1FE0
ENDCHAR
STARTCHAR asciicircum
ENCODING 94
SWIDTH 375 0
DWIDTH 11 0
BBX 8 5 1 15
BITMAP
18
1C
3E
77
E3
ENDCHAR
STARTCHAR underscore
ENCODING 95
SWIDTH 656 0
DWIDTH 18 0
BBX 17 3 1 0
BITMAP
F00000
3FFF80
00FF80
ENDCHAR
STARTCHAR grave
ENCODING 96
SWIDTH 172 0
DWIDTH 5 0
BBX 3 4 1 12
BITMAP
80
C0
60
20
ENDCHAR
STARTCHAR a
ENCODING 97
SWIDTH 505 0
DWIDTH 14 0
BBX 12 14 1 0
BITMAP
0E00
1F00
0180
00C0
0060
0E60
7FF0
E0F0
8030
8030
8010
C000
7FF0
1F80
ENDCHAR
STARTCHAR b
ENCODING 98
SWIDTH 497 0
DWIDTH 14 0
BBX 13 18 0 0
BITMAP
4000
C000
C000
4000
4000
4000
6000
6000
6000
3FC0
30E0
2030
2018
2008
3008
3818
1FF8
0FE0
ENDCHAR
STARTCHAR c
ENCODING 99
SWIDTH 449 0
DWIDTH 13 0
BBX 11 12 1 0
BITMAP
1F00
3B80
6080
C080
8000
8000
8000
8000
C000
E000
7FE0
1FC0
ENDCHAR
STARTCHAR d
ENCODING 100
SWIDTH 524 0
DWIDTH 15 0
BBX 13 20 1 0
BITMAP
0080
00C0
00E0
0060
0060
0060
0030
3C30
7F30
E1F0
C0F0
C070
8030
8030
8070
C078
C0D8
6398
7F18
3C00
ENDCHAR
STARTCHAR e
ENCODING 101
SWIDTH 515 0
DWIDTH 14 0
BBX 13 15 1 0
BITMAP
0400
3F00
6180
4080
C080
8080
8380
EF00
BC00
8000
C000
4000
7000
3FF8
0FC0
ENDCHAR
STARTCHAR f
ENCODING 102
SWIDTH 376 0
DWIDTH 11 0
BBX 13 20 0 0
BITMAP
0380
07E0
0C30
1818
1008
1000
1000
1000
1000
1000
1000
FFC0
DFC0
0800
0C00
0400
0600
0300
0300
0100
ENDCHAR
STARTCHAR g
ENCODING 103
SWIDTH 366 0
DWIDTH 10 0
BBX 14 26 -4 -14
BITMAP
0020
00F0
0198
0208
0608
040C
040C
041C
041C
073C
03EC
000C
000C
000C
000C
0004
0004
0004
4004
C004
C00C
600C
380C
1F18
07F0
00E0
ENDCHAR
STARTCHAR h
ENCODING 104
SWIDTH 427 0
DWIDTH 12 0
BBX 11 20 0 0
BITMAP
8000
8000
C000
C000
C000
4000
4000
6600
7F00
7380
60C0
2040
2040
2060
2060
2060
3060
3060
3060
3040
ENDCHAR
STARTCHAR i
ENCODING 105
SWIDTH 174 0
DWIDTH 5 0
BBX 4 17 0 0
BITMAP
C0
C0
00
00
00
20
20
20
20
20
30
30
30
30
30
10
10
ENDCHAR
STARTCHAR j
ENCODING 106
SWIDTH 200 0
DWIDTH 6 0
BBX 9 29 -3 -13
BITMAP
0C00
0C00
0000
0000
0000
0400
0600
0600
0200
0300
0300
0300
0300
0300
0180
0180
0180
0180
0180
8180
C080
C080
4080
6080
3080
3880
1F80
0780
0100
ENDCHAR
STARTCHAR k
ENCODING 107
SWIDTH 403 0
DWIDTH 11 0
BBX 11 17 0 0
BITMAP
8000
8000
C000
C000
4080
4180
4300
6600
6C00
7800
3000
3000
3000
3800
3F00
63E0
60E0
ENDCHAR
STARTCHAR l
ENCODING 108
SWIDTH 120 0
DWIDTH 3 0
BBX 2 16 1 0
BITMAP
80
80
80
80
80
C0
C0
C0
C0
C0
C0
C0
C0
C0
80
80
ENDCHAR
STARTCHAR m
ENCODING 109
SWIDTH 750 0
DWIDTH 21 0
BBX 19 12 1 0
BITMAP
000700
BC1F80
FF38C0
E160C0
C1C060
C0C060
C0C060
C0C020
C04020
C06060
C00060
000060
ENDCHAR
STARTCHAR n
ENCODING 110
SWIDTH 459 0
DWIDTH 13 0
BBX 11 12 1 0
BITMAP
0F00
BF80
E1C0
C0C0
C040
C060
C060
C060
C020
C020
6020
2020
ENDCHAR
STARTCHAR o
ENCODING 111
SWIDTH 487 0
DWIDTH 14 0
BBX 12 12 1 0
BITMAP
0F80
3FC0
60E0
C060
8030
8030
8030
8030
C060
C0E0
7FC0
1F00
ENDCHAR
STARTCHAR p
ENCODING 112
SWIDTH 520 0
DWIDTH 15 0
BBX 13 20 1 -10
BITMAP
0700
3FE0
7070
C018
C018
C018
D018
DE78
CFF0
C000
E000
E000
6000
6000
6000
6000
3000
3000
3000
1000
ENDCHAR
STARTCHAR q
ENCODING 113
SWIDTH 412 0
DWIDTH 12 0
BBX 10 23 1 -9
BITMAP
0F00
3B80
6080
C0C0
C080
8180
8180
8180
8180
8180
C180
7380
3F80
0180
0180
0180
0180
0180
0180
0180
0180
0080
0080
ENDCHAR
STARTCHAR r
ENCODING 114
SWIDTH 346 0
DWIDTH 10 0
BBX 9 13 0 0
BITMAP
0600
BF80
E080
4000
4000
4000
4000
6000
6000
2000
3000
3000
1000
ENDCHAR
STARTCHAR s
ENCODING 115
SWIDTH 514 0
DWIDTH 14 0
BBX 14 13 0 0
BITMAP
0F00
3F80
60C0
60C0
6080
3800
1FE0
0038
0018
400C
E01C
3FF8
0FF0
ENDCHAR
STARTCHAR t
ENCODING 116
SWIDTH 328 0
DWIDTH 9 0
BBX 9 17 0 0
BITMAP
1800
1800
0800
0800
0800
1800
FF80
7F00
0800
0800
0C00
0C00
0C00
0C00
0C00
0C00
0400
ENDCHAR
STARTCHAR u
ENCODING 117
SWIDTH 501 0
DWIDTH 14 0
BBX 14 13 0 0
BITMAP
4000
C020
C030
C030
4030
4030
6030
6070
2070
30D8
1F88
0F08
000C
ENDCHAR
STARTCHAR v
ENCODING 118
SWIDTH 389 0
DWIDTH 11 0
BBX 10 11 0 0
BITMAP
8000
C000
60C0
60C0
3180
3180
1100
1B00
0F00
0E00
0600
ENDCHAR
STARTCHAR w
ENCODING 119
SWIDTH 656 0
DWIDTH 18 0
BBX 18 12 0 0
BITMAP
400000
400000
400300
C04180
C04180
C04080
C040C0
40E0C0
60E0C0
21B180
3F9F80
0E0E00
ENDCHAR
STARTCHAR x
ENCODING 120
SWIDTH 448 0
DWIDTH 13 0
BBX 12 12 0 -1
BITMAP
8010
C070
60E0
3180
1F00
0E00
0E00
1380
31C0
20C0
2060
0030
ENDCHAR
STARTCHAR y
ENCODING 121
SWIDTH 487 0
DWIDTH 14 0
BBX 13 26 0 -14
BITMAP
4010
C010
4010
4010
4018
4018
6018
2018
3038
18F8
0F88
0008
0008
0008
0008
0008
0008
0018
0018
0018
6010
7010
3830
1C60
07E0
0180
ENDCHAR
STARTCHAR z
ENCODING 122
SWIDTH 459 0
DWIDTH 13 0
BBX 11 15 1 0
BITMAP
0800
FF00
C300
0100
0100
0100
0300
3FC0
FE00
0C00
1800
3000
7060
7FE0
3F00
ENDCHAR
STARTCHAR braceleft
ENCODING 123
SWIDTH 393 0
DWIDTH 11 0
BBX 10 28 1 -3
BITMAP
0F00
3D80
7080
C000
C000
8000
8000
8000
8000
C000
7000
3E00
0E00
1F00
7100
C100
0300
0700
0E00
1800
3000
6000
4000
4000
6000
7000
3FC0
1E00
ENDCHAR
STARTCHAR bar
ENCODING 124
SWIDTH 149 0
DWIDTH 4 0
BBX 3 18 1 0
BITMAP
80
80
80
80
C0
C0
40
40
40
40
40
40
40
40
40
40
60
60
ENDCHAR
STARTCHAR braceright
ENCODING 125
SWIDTH 440 0
DWIDTH 12 0
BBX 12 32 0 -6
BITMAP
FF80
C1C0
60C0
00C0
00C0
00C0
0180
0300
0600
0C00
1800
1800
1FC0
0FC0
1800
1800
0C00
0600
0300
0180
0080
00C0
0040
0060
0020
0020
0030
0030
8020
C060
60C0
3F80
ENDCHAR
STARTCHAR asciitilde
ENCODING 126
SWIDTH 402 0
DWIDTH 11 0
BBX 9 4 1 11
BITMAP
F080
9F00
8600
8000
ENDCHAR
STARTCHAR nonbreakingspace
ENCODING 160
SWIDTH 375 0
DWIDTH 11 0
BBX 1 1 0 0
BITMAP
00
ENDCHAR
STARTCHAR exclamdown
ENCODING 161
SWIDTH 149 0
DWIDTH 4 0
BBX 3 19 1 0
BITMAP
C0
E0
00
00
00
00
C0
C0
C0
C0
C0
C0
C0
C0
C0
C0
C0
80
80
ENDCHAR
STARTCHAR cent
ENCODING 162
SWIDTH 449 0
DWIDTH 13 0
BBX 11 17 1 -2
BITMAP
0800
0C00
0400
3F00
6580
4480
C680
8600
8600
8600
8600
C600
E600
7F60
3FC0
0600
0400
ENDCHAR
STARTCHAR sterling
ENCODING 163
SWIDTH 758 0
DWIDTH 21 0
BBX 20 20 0 0
BITMAP
0007E0
000E70
000810
001010
001010
003000
002000
007F80
03FF80
0FF000
006000
004000
004000
00C000
008000
008000
7D8000
FFFC00
FF7E00
780000
ENDCHAR
STARTCHAR currency
ENCODING 164
SWIDTH 618 0
DWIDTH 17 0
BBX 15 14 1 1
BITMAP
8000
E3E6
7FFC
3C18
300C
3004
2004
2004
200C
300C
1838
3FF0
2398
600C
ENDCHAR
STARTCHAR yen
ENCODING 165
SWIDTH 389 0
DWIDTH 11 0
BBX 11 21 0 0
BITMAP
4000
6020
3060
30C0
10C0
1180
0980
0B00
0F00
0600
0600
0600
FFC0
0600
0600
7F80
0500
0400
0C00
0C00
0C00
ENDCHAR
STARTCHAR brokenbar
ENCODING 166
SWIDTH 117 0
DWIDTH 3 0
BBX 1 16 1 0
BITMAP
80
80
80
80
80
80
80
00
80
80
80
80
80
80
80
80
ENDCHAR
STARTCHAR section
ENCODING 167
SWIDTH 514 0
DWIDTH 14 0
BBX 13 19 1 0
BITMAP
0800
3F80
61E0
4060
4010
6000
3FC0
7FF0
C018
C018
C018
7038
3FF0
0070
0030
8018
6038
3FF0
1FE0
ENDCHAR
STARTCHAR dieresis
ENCODING 168
SWIDTH 397 0
DWIDTH 11 0
BBX 7 3 2 12
BITMAP
44
EE
C6
ENDCHAR
STARTCHAR copyright
ENCODING 169
SWIDTH 667 0
DWIDTH 19 0
BBX 17 16 1 0
BITMAP
038000
0FF000
303C00
208E00
63E600
463300
CC2180
882180
880080
880080
CC0080
4C0080
67F980
300700
1E7C00
0FE000
ENDCHAR
STARTCHAR ordfeminine
ENCODING 170
SWIDTH 266 0
DWIDTH 7 0
BBX 7 8 0 6
BITMAP
20
28
04
34
4E
82
40
3E
ENDCHAR
STARTCHAR guillemotleft
ENCODING 171
SWIDTH 755 0
DWIDTH 21 0
BBX 20 13 0 0
BITMAP
000070
0011C0
003B80
006600
01DC00
033000
0E6000
18C000
31FC00
607FC0
FF80E0
1FE000
003000
ENDCHAR
STARTCHAR logicalnot
ENCODING 172
SWIDTH 369 0
DWIDTH 10 0
BBX 9 4 1 7
BITMAP
FF80
0180
0180
0100
ENDCHAR
STARTCHAR hyphen_
ENCODING 173
SWIDTH 375 0
DWIDTH 11 0
BBX 9 2 0 7
BITMAP
3F80
FF80
ENDCHAR
STARTCHAR registered
ENCODING 174
SWIDTH 708 0
DWIDTH 20 0
BBX 17 16 1 0
BITMAP
0FE000
1DF800
301C00
67C600
5FF300
D61900
C21980
823880
83E080
C30080
C2C080
626180
723300
3C1E00
0FF800
038000
ENDCHAR
STARTCHAR macron
ENCODING 175
SWIDTH 287 0
DWIDTH 8 0
BBX 7 2 1 13
BITMAP
FE
F6
ENDCHAR
STARTCHAR degree
ENCODING 176
SWIDTH 254 0
DWIDTH 7 0
BBX 6 8 0 8
BITMAP
38
48
84
84
84
84
48
30
ENDCHAR
STARTCHAR plusminus
ENCODING 177
SWIDTH 459 0
DWIDTH 13 0
BBX 13 12 0 1
BITMAP
0400
0400
0600
0600
07E0
7FF8
C300
0300
0300
0300
0FF0
7FF0
ENDCHAR
STARTCHAR twosuperior
ENCODING 178
SWIDTH 296 0
DWIDTH 8 0
BBX 7 9 0 6
BITMAP
1C
14
02
02
02
04
84
F8
7E
ENDCHAR
STARTCHAR threesuperior
ENCODING 179
SWIDTH 204 0
DWIDTH 6 0
BBX 6 9 0 7
BITMAP
F0
08
10
60
30
08
84
C4
38
ENDCHAR
STARTCHAR acute
ENCODING 180
SWIDTH 180 0
DWIDTH 5 0
BBX 5 4 0 11
BITMAP
18
70
E0
80
ENDCHAR
STARTCHAR mu
ENCODING 181
SWIDTH 501 0
DWIDTH 14 0
BBX 14 15 0 -2
BITMAP
4000
C020
C030
C030
C030
C030
E030
E070
E070
F0D8
DF98
CF08
C00C
C000
C000
ENDCHAR
STARTCHAR paragraph
ENCODING 182
SWIDTH 413 0
DWIDTH 12 0
BBX 10 15 1 -1
BITMAP
7F80
FF80
FF80
FE80
FE80
FE80
7EC0
06C0
06C0
06C0
06C0
06C0
0680
0680
0080
ENDCHAR
STARTCHAR periodcentered
ENCODING 183
SWIDTH 212 0
DWIDTH 6 0
BBX 4 3 1 5
BITMAP
60
F0
60
ENDCHAR
STARTCHAR cedilla
ENCODING 184
SWIDTH 445 0
DWIDTH 12 0
BBX 8 10 4 -9
BITMAP
40
40
40
60
3C
06
03
C2
7E
18
ENDCHAR
STARTCHAR onesuperior
ENCODING 185
SWIDTH 197 0
DWIDTH 6 0
BBX 5 11 0 6
BITMAP
08
08
08
18
38
50
90
10
10
10
10
ENDCHAR
STARTCHAR ordmasculine
ENCODING 186
SWIDTH 254 0
DWIDTH 7 0
BBX 6 8 0 8
BITMAP
38
48
84
84
84
84
48
30
ENDCHAR
STARTCHAR guillemotright
ENCODING 187
SWIDTH 659 0
DWIDTH 18 0
BBX 16 14 1 0
BITMAP
0200
C380
E1E0
787C
1F9F
01C3
00C7
018E
031C
0E30
18E0
7180
E300
8000
ENDCHAR
STARTCHAR onequarter
ENCODING 188
SWIDTH 626 0
DWIDTH 18 0
BBX 16 21 0 -1
BITMAP
0040
0480
0480
0C80
0880
1880
2980
4900
8900
0900
0B60
1240
0241
0281
0643
0447
047F
0C03
0803
0801
0800
ENDCHAR
STARTCHAR onehalf
ENCODING 189
SWIDTH 566 0
DWIDTH 16 0
BBX 15 21 0 -1
BITMAP
0040
0440
04C0
0480
0C80
1C80
3C80
6980
C900
8918
0B24
0B24
0A04
1204
0604
0404
0408
0DC8
09F8
08CE
0800
ENDCHAR
STARTCHAR threequarters
ENCODING 190
SWIDTH 566 0
DWIDTH 16 0
BBX 15 22 0 -2
BITMAP
0040
0040
0040
0040
7880
0880
1880
7080
19A0
0540
8540
4542
3B42
0246
026E
023A
0602
0402
0402
0C00
0800
0800
ENDCHAR
STARTCHAR questiondown
ENCODING 191
SWIDTH 272 0
DWIDTH 8 0
BBX 7 21 1 0
BITMAP
C0
C0
00
00
00
00
00
E0
F8
18
18
30
70
60
C0
C0
80
80
C0
7E
3C
ENDCHAR
STARTCHAR Agrave
ENCODING 192
SWIDTH 562 0
DWIDTH 16 0
BBX 14 26 1 0
BITMAP
0C00
0600
0300
0180
0000
0F80
30C0
2060
6020
4030
4010
4018
4018
4008
C008
C008
C00C
FFFC
C00C
400C
C00C
400C
400C
400C
600C
6008
ENDCHAR
STARTCHAR Aacute
ENCODING 193
SWIDTH 562 0
DWIDTH 16 0
BBX 14 26 1 0
BITMAP
0600
0C00
1800
1000
0000
0F80
30C0
2060
6020
4030
4010
4018
4018
4008
C008
C008
C00C
FFFC
C00C
400C
C00C
400C
400C
400C
600C
6008
ENDCHAR
STARTCHAR Acircumflex
ENCODING 194
SWIDTH 562 0
DWIDTH 16 0
BBX 14 27 1 0
BITMAP
0600
0700
0F80
1980
30C0
0000
0F80
30C0
2060
6020
4030
4010
4018
4018
4008
C008
C008
C00C
FFFC
C00C
400C
C00C
400C
400C
400C
600C
6008
ENDCHAR
STARTCHAR Atilde
ENCODING 195
SWIDTH 562 0
DWIDTH 16 0
BBX 14 25 1 0
BITMAP
3860
67C0
4380
4000
0F80
30C0
2060
6020
4030
4010
4018
4018
4008
C008
C008
C00C
FFFC
C00C
400C
C00C
400C
400C
400C
600C
6008
ENDCHAR
STARTCHAR Adieresis
ENCODING 196
SWIDTH 562 0
DWIDTH 16 0
BBX 14 26 1 0
BITMAP
0880
1DC0
18C0
0000
0000
0F80
30C0
2060
6020
4030
4010
4018
4018
4008
C008
C008
C00C
FFFC
C00C
400C
C00C
400C
400C
400C
600C
6008
ENDCHAR
STARTCHAR Aring
ENCODING 197
SWIDTH 562 0
DWIDTH 16 0
BBX 14 26 1 0
BITMAP
0200
0D00
1080
1100
0F00
0F80
30C0
2060
6020
4030
4010
4018
4018
4008
C008
C008
C00C
FFFC
C00C
400C
C00C
400C
400C
400C
600C
6008
ENDCHAR
STARTCHAR AE
ENCODING 198
SWIDTH 960 0
DWIDTH 27 0
BBX 25 21 1 0
BITMAP
0F800000
30C00000
20600000
60200000
4037FF00
40140080
401C0000
401C0000
400C0000
C00C0000
C00C1F00
C00FFC00
FFFC0000
C00C0000
400C0000
C00C0000
400C0000
400C0000
400C0000
600FFF80
600BFE00
ENDCHAR
STARTCHAR Ccedilla
ENCODING 199
SWIDTH 515 0
DWIDTH 14 0
BBX 13 27 1 -9
BITMAP
03C0
0FC0
1C40
3080
2000
4000
C000
8000
8000
8000
8000
8000
8000
8000
C000
6078
7FF0
1E00
1000
1000
1800
0780
00C0
00C0
18C0
0F80
0200
ENDCHAR
STARTCHAR Egrave
ENCODING 200
SWIDTH 524 0
DWIDTH 15 0
BBX 12 23 1 0
BITMAP
0800
0600
0700
0100
0000
0000
FFF0
8010
C000
C000
C000
C000
C3E0
FF80
C000
8000
8000
8000
8000
8000
8000
FFF0
7FE0
ENDCHAR
STARTCHAR Eacute
ENCODING 201
SWIDTH 524 0
DWIDTH 15 0
BBX 12 22 1 0
BITMAP
0300
0600
0C00
0800
0000
FFF0
8010
C000
C000
C000
C000
C3E0
FF80
C000
8000
8000
8000
8000
8000
8000
FFF0
7FE0
ENDCHAR
STARTCHAR Ecircumflex
ENCODING 202
SWIDTH 524 0
DWIDTH 15 0
BBX 12 24 1 0
BITMAP
0300
0700
0780
0DC0
18C0
0000
0000
FFF0
8010
C000
C000
C000
C000
C3E0
FF80
C000
8000
8000
8000
8000
8000
8000
FFF0
7FE0
ENDCHAR
STARTCHAR Edieresis
ENCODING 203
SWIDTH 524 0
DWIDTH 15 0
BBX 12 22 1 0
BITMAP
1880
19C0
1980
0000
0000
FFF0
8010
C000
C000
C000
C000
C3E0
FF80
C000
8000
8000
8000
8000
8000
8000
FFF0
7FE0
ENDCHAR
STARTCHAR Igrave
ENCODING 204
SWIDTH 167 0
DWIDTH 5 0
BBX 5 22 -1 0
BITMAP
80
60
30
10
00
00
40
60
20
20
30
30
10
10
10
18
18
18
18
18
08
08
ENDCHAR
STARTCHAR Iacute
ENCODING 205
SWIDTH 167 0
DWIDTH 5 0
BBX 5 20 -1 0
BITMAP
18
70
60
C0
40
60
20
20
30
30
10
10
10
18
18
18
18
18
08
08
ENDCHAR
STARTCHAR Icircumflex
ENCODING 206
SWIDTH 167 0
DWIDTH 5 0
BBX 7 24 -1 0
BITMAP
18
3C
3C
66
C6
00
00
00
40
60
20
20
30
30
10
10
10
18
18
18
18
18
08
08
ENDCHAR
STARTCHAR Idieresis
ENCODING 207
SWIDTH 167 0
DWIDTH 5 0
BBX 7 19 -3 0
BITMAP
44
EE
C6
10
18
08
08
0C
0C
04
04
04
06
06
06
06
06
02
02
ENDCHAR
STARTCHAR Eth
ENCODING 208
SWIDTH 741 0
DWIDTH 21 0
BBX 19 18 1 0
BITMAP
0C0000
FFE000
81F800
018E00
018700
018180
0080C0
0080C0
03FC60
07C460
00C060
00C060
00C060
00C0E0
00C0C0
008380
03DF00
01FC00
ENDCHAR
STARTCHAR Ntilde
ENCODING 209
SWIDTH 609 0
DWIDTH 17 0
BBX 15 19 1 0
BITMAP
0E18
11F0
10E0
1000
8000
C010
C018
C01C
E00C
E00C
E006
F006
D002
9802
8C02
8606
C70C
C1FC
8060
ENDCHAR
STARTCHAR Ograve
ENCODING 210
SWIDTH 609 0
DWIDTH 17 0
BBX 16 20 0 0
BITMAP
0100
0180
00E0
0060
0000
0000
0400
1FC0
30F0
6038
400C
4006
C003
4003
4001
6001
3003
3806
1F7C
07F0
ENDCHAR
STARTCHAR Oacute
ENCODING 211
SWIDTH 609 0
DWIDTH 17 0
BBX 16 19 0 0
BITMAP
00C0
0180
0300
0200
0000
0400
1FC0
30F0
6038
400C
4006
C003
4003
4001
6001
3003
3806
1F7C
07F0
ENDCHAR
STARTCHAR Ocircumflex
ENCODING 212
SWIDTH 609 0
DWIDTH 17 0
BBX 16 21 0 0
BITMAP
0600
0700
0F80
19C0
38C0
0000
0000
0400
1FC0
30F0
6038
400C
4006
C003
4003
4001
6001
3003
3806
1F7C
07F0
ENDCHAR
STARTCHAR Otilde
ENCODING 213
SWIDTH 609 0
DWIDTH 17 0
BBX 16 18 0 0
BITMAP
1E30
33E0
30C0
2000
0400
1FC0
30F0
6038
400C
4006
C003
4003
4001
6001
3003
3806
1F7C
07F0
ENDCHAR
STARTCHAR Odieresis
ENCODING 214
SWIDTH 609 0
DWIDTH 17 0
BBX 16 19 0 0
BITMAP
0220
0770
0630
0000
0000
0400
1FC0
30F0
6038
400C
4006
C003
4003
4001
6001
3003
3806
1F7C
07F0
ENDCHAR
STARTCHAR multiply
ENCODING 215
SWIDTH 448 0
DWIDTH 13 0
BBX 9 7 1 2
BITMAP
4180
E300
3E00
1C00
1C00
3600
6300
ENDCHAR
STARTCHAR Oslash
ENCODING 216
SWIDTH 609 0
DWIDTH 17 0
BBX 16 21 0 -3
BITMAP
0020
0020
0020
0020
0460
1FC0
30F0
60F8
408C
4186
C183
4103
4301
6301
3603
3E06
1F7C
0FF0
0C00
1800
0800
ENDCHAR
STARTCHAR Ugrave
ENCODING 217
SWIDTH 571 0
DWIDTH 16 0
BBX 15 20 1 0
BITMAP
0400
0300
0180
0080
0000
C010
C030
8030
8030
8030
8010
8010
8018
C018
C018
401C
603C
30EC
3F86
1F00
ENDCHAR
STARTCHAR Uacute
ENCODING 218
SWIDTH 571 0
DWIDTH 16 0
BBX 15 19 1 0
BITMAP
0180
0700
0600
0C00
C010
C030
8030
8030
8030
8010
8010
8018
C018
C018
401C
603C
30EC
3F86
1F00
ENDCHAR
STARTCHAR Ucircumflex
ENCODING 219
SWIDTH 571 0
DWIDTH 16 0
BBX 15 24 1 0
BITMAP
0300
0380
07C0
0CE0
1860
0000
0000
0000
0000
C010
C030
8030
8030
8030
8010
8010
8018
C018
C018
401C
603C
30EC
3F86
1F00
ENDCHAR
STARTCHAR Udieresis
ENCODING 220
SWIDTH 571 0
DWIDTH 16 0
BBX 15 19 1 0
BITMAP
0840
1CE0
0CC0
0000
C010
C030
8030
8030
8030
8010
8010
8018
C018
C018
401C
603C
30EC
3F86
1F00
ENDCHAR
STARTCHAR Yacute
ENCODING 221
SWIDTH 403 0
DWIDTH 11 0
BBX 11 23 0 0
BITMAP
0080
0300
0600
0400
0000
C000
4060
6060
6060
3040
18C0
0FC0
0380
0180
0180
0100
0300
0300
0200
0200
0200
0200
0200
ENDCHAR
STARTCHAR Thorn
ENCODING 222
SWIDTH 497 0
DWIDTH 14 0
BBX 12 21 1 -4
BITMAP
C000
C000
C000
C000
C000
C000
C000
4000
7F80
61C0
4060
4030
4010
6010
7030
7FF0
4FC0
4000
6000
6000
6000
ENDCHAR
STARTCHAR germandbls
ENCODING 223
SWIDTH 590 0
DWIDTH 17 0
BBX 15 24 1 -4
BITMAP
4000
FE00
F700
C180
C0C0
C080
C180
C700
CF00
47C0
41E0
4030
4018
400C
4006
6006
6006
601C
67F8
6000
6000
6000
6000
2000
ENDCHAR
STARTCHAR agrave
ENCODING 224
SWIDTH 505 0
DWIDTH 14 0
BBX 12 19 1 0
BITMAP
1000
0C00
0600
0300
0000
0E00
1F00
0180
00C0
0060
0E60
7FF0
E0F0
8030
8030
8010
C000
7FF0
1F80
ENDCHAR
STARTCHAR aacute
ENCODING 225
SWIDTH 505 0
DWIDTH 14 0
BBX 12 19 1 0
BITMAP
0300
0600
0C00
1800
0000
0E00
1F00
0180
00C0
0060
0E60
7FF0
E0F0
8030
8030
8010
C000
7FF0
1F80
ENDCHAR
STARTCHAR acircumflex
ENCODING 226
SWIDTH 505 0
DWIDTH 14 0
BBX 12 20 1 0
BITMAP
0600
0700
0F80
19C0
38C0
0000
0E00
1F00
0180
00C0
0060
0E60
7FF0
E0F0
8030
8030
8010
C000
7FF0
1F80
ENDCHAR
STARTCHAR atilde
ENCODING 227
SWIDTH 505 0
DWIDTH 14 0
BBX 12 19 1 0
BITMAP
3860
67C0
4380
4000
0000
0E00
1F00
0180
00C0
0060
0E60
7FF0
E0F0
8030
8030
8010
C000
7FF0
1F80
ENDCHAR
STARTCHAR adieresis
ENCODING 228
SWIDTH 505 0
DWIDTH 14 0
BBX 12 18 1 0
BITMAP
1880
19C0
1980
0000
0E00
1F00
0180
00C0
0060
0E60
7FF0
E0F0
8030
8030
8010
C000
7FF0
1F80
ENDCHAR
STARTCHAR aring
ENCODING 229
SWIDTH 505 0
DWIDTH 14 0
BBX 12 18 1 0
BITMAP
0F00
1100
1180
0F00
0E00
1F00
0180
00C0
0060
0E60
7FF0
E0F0
8030
8030
8010
C000
7FF0
1F80
ENDCHAR
STARTCHAR ae
ENCODING 230
SWIDTH 881 0
DWIDTH 25 0
BBX 23 15 1 -1
BITMAP
0E03C0
1F07E0
018C30
00D810
007010
0E7030
7FF060
E0FFC0
803600
803000
801800
C00C00
7FFF00
1F83FE
0000F0
ENDCHAR
STARTCHAR ccedilla
ENCODING 231
SWIDTH 449 0
DWIDTH 13 0
BBX 11 20 1 -8
BITMAP
1F00
6180
4080
C080
8000
8000
8000
8000
C000
E000
7EE0
1FC0
1000
1000
0C00
0780
00C0
20C0
18C0
0F80
ENDCHAR
STARTCHAR egrave
ENCODING 232
SWIDTH 515 0
DWIDTH 14 0
BBX 13 19 1 0
BITMAP
1000
1C00
0E00
0200
0400
3F00
6180
4080
C080
8080
8380
EF00
BC00
8000
C000
4000
7000
3FF8
0FC0
ENDCHAR
STARTCHAR eacute
ENCODING 233
SWIDTH 515 0
DWIDTH 14 0
BBX 13 19 1 0
BITMAP
0200
0C00
1800
1000
0400
3F00
6180
4080
C080
8080
8380
EF00
BC00
8000
C000
4000
7000
3FF8
0FC0
ENDCHAR
STARTCHAR ecircumflex
ENCODING 234
SWIDTH 515 0
DWIDTH 14 0
BBX 13 20 1 0
BITMAP
0200
0700
0F80
1DC0
38C0
0400
3F00
6180
4080
C080
8080
8380
EF00
BC00
8000
C000
4000
7000
3FF8
0FC0
ENDCHAR
STARTCHAR edieresis
ENCODING 235
SWIDTH 515 0
DWIDTH 14 0
BBX 13 18 1 0
BITMAP
1100
3B80
3180
0400
3F00
6180
4080
C080
8080
8380
EF00
BC00
8000
C000
4000
7000
3FF8
0FC0
ENDCHAR
STARTCHAR igrave
ENCODING 236
SWIDTH 174 0
DWIDTH 5 0
BBX 4 17 0 0
BITMAP
80
60
30
10
00
20
20
20
20
20
30
30
30
30
30
10
10
ENDCHAR
STARTCHAR iacute
ENCODING 237
SWIDTH 174 0
DWIDTH 5 0
BBX 4 18 0 0
BITMAP
10
30
60
C0
80
00
20
20
20
20
20
30
30
30
30
30
10
10
ENDCHAR
STARTCHAR icircumflex
ENCODING 238
SWIDTH 174 0
DWIDTH 5 0
BBX 7 20 -1 0
BITMAP
18
3C
3C
66
C6
00
00
00
10
10
10
10
10
18
18
18
18
18
08
08
ENDCHAR
STARTCHAR idieresis
ENCODING 239
SWIDTH 174 0
DWIDTH 5 0
BBX 7 16 -1 0
BITMAP
CE
CE
00
00
10
10
10
10
10
18
18
18
18
18
08
08
ENDCHAR
STARTCHAR eth
ENCODING 240
SWIDTH 407 0
DWIDTH 11 0
BBX 10 15 1 0
BITMAP
E000
F800
0CC0
07C0
1F00
1980
0080
3FC0
61C0
C0C0
8040
80C0
C0C0
F380
3F00
ENDCHAR
STARTCHAR ntilde
ENCODING 241
SWIDTH 459 0
DWIDTH 13 0
BBX 11 17 1 0
BITMAP
70C0
8F80
8700
8000
0000
0F00
BF80
E1C0
C0C0
C040
C060
C060
C060
C020
C020
6020
2020
ENDCHAR
STARTCHAR ograve
ENCODING 242
SWIDTH 487 0
DWIDTH 14 0
BBX 12 16 1 0
BITMAP
0800
0600
0300
0100
0F80
3FC0
60E0
C060
8030
8030
8030
8030
C060
C0E0
7FC0
1F00
ENDCHAR
STARTCHAR oacute
ENCODING 243
SWIDTH 487 0
DWIDTH 14 0
BBX 12 17 1 0
BITMAP
0300
0E00
0C00
1000
0000
0F80
3FC0
60E0
C060
8030
8030
8030
8030
C060
C0E0
7FC0
1F00
ENDCHAR
STARTCHAR ocircumflex
ENCODING 244
SWIDTH 487 0
DWIDTH 14 0
BBX 12 18 1 0
BITMAP
0600
0700
0F80
1980
3080
0000
0F80
3FC0
60E0
C060
8030
8030
8030
8030
C060
C0E0
7FC0
1F00
ENDCHAR
STARTCHAR otilde
ENCODING 245
SWIDTH 487 0
DWIDTH 14 0
BBX 12 15 1 0
BITMAP
3860
67C0
4380
4F80
3FC0
60E0
C060
8030
8030
8030
8030
C060
C0E0
7FC0
1F00
ENDCHAR
STARTCHAR odieresis
ENCODING 246
SWIDTH 487 0
DWIDTH 14 0
BBX 12 15 1 0
BITMAP
1180
3980
1980
0F80
3FC0
60E0
C060
8030
8030
8030
8030
C060
C0E0
7FC0
1F00
ENDCHAR
STARTCHAR divide
ENCODING 247
SWIDTH 335 0
DWIDTH 9 0
BBX 7 7 1 2
BITMAP
18
10
00
FE
00
00
10
ENDCHAR
STARTCHAR oslash
ENCODING 248
SWIDTH 487 0
DWIDTH 14 0
BBX 13 13 0 0
BITMAP
0060
01E0
0FE0
38F0
61B0
4318
4318
C618
4C18
6C30
7870
3FE0
2F80
ENDCHAR
STARTCHAR ugrave
ENCODING 249
SWIDTH 501 0
DWIDTH 14 0
BBX 14 19 0 0
BITMAP
1000
0C00
0600
0200
0000
0000
4000
C020
C030
C030
4030
4030
6030
6070
2070
30D8
1F88
0F08
000C
ENDCHAR
STARTCHAR uacute
ENCODING 250
SWIDTH 501 0
DWIDTH 14 0
BBX 14 19 0 0
BITMAP
0180
0300
0600
0C00
0000
0000
4000
C020
C030
C030
4030
4030
6030
6070
2070
30D8
1F88
0F08
000C
ENDCHAR
STARTCHAR ucircumflex
ENCODING 251
SWIDTH 501 0
DWIDTH 14 0
BBX 14 20 0 0
BITMAP
0300
0380
07C0
0CE0
1860
0000
0000
4000
C020
C030
C030
4030
4030
6030
6070
2070
30D8
1F88
0F08
000C
ENDCHAR
STARTCHAR udieresis
ENCODING 252
SWIDTH 501 0
DWIDTH 14 0
BBX 14 17 0 0
BITMAP
0880
1DC0
19C0
0000
4000
C020
C030
C030
4030
4030
6030
6070
2070
30D8
1F88
0F08
000C
ENDCHAR
STARTCHAR yacute
ENCODING 253
SWIDTH 487 0
DWIDTH 14 0
BBX 13 32 0 -14
BITMAP
0180
0700
0E00
0800
0000
0000
4010
C010
4010
4010
4018
4018
6018
2018
3038
18F8
0F88
0008
0008
0008
0008
0008
0008
0018
0018
0018
6010
7010
3830
1C60
07E0
0180
ENDCHAR
STARTCHAR thorn
ENCODING 254
SWIDTH 520 0
DWIDTH 15 0
BBX 13 19 1 -5
BITMAP
C000
C000
C000
8000
9FE0
F870
C030
C018
C018
C018
F038
FFF0
C400
C000
C000
C000
C000
C000
C000
ENDCHAR
STARTCHAR ydieresis
ENCODING 255
SWIDTH 487 0
DWIDTH 14 0
BBX 13 31 0 -14
BITMAP
0880
1DC0
18C0
0000
0000
4010
C010
4010
4010
4018
4018
6018
2018
3038
18F8
0F88
0008
0008
0008
0008
0008
0008
0018
0018
0018
6010
7010
3830
1C60
07E0
0180
ENDCHAR
STARTCHAR Amacron
ENCODING 256
SWIDTH 562 0
DWIDTH 16 0
BBX 14 25 1 0
BITMAP
1F80
3DC0
0000
0000
0F80
30C0
2060
6020
4030
4010
4018
4018
4008
C008
C008
C00C
FFFC
C00C
400C
C00C
400C
400C
400C
600C
6008
ENDCHAR
STARTCHAR amacron
ENCODING 257
SWIDTH 505 0
DWIDTH 14 0
BBX 12 18 1 0
BITMAP
1F80
3D80
0000
0000
0E00
1F00
0180
00C0
0060
0E60
7FF0
E0F0
8030
8030
8010
C000
7FF0
1F80
ENDCHAR
STARTCHAR Abreve
ENCODING 258
SWIDTH 562 0
DWIDTH 16 0
BBX 14 26 1 0
BITMAP
08C0
0580
0300
0000
0000
0F80
30C0
2060
6020
4030
4010
4018
4018
4008
C008
C008
C00C
FFFC
C00C
400C
C00C
400C
400C
400C
600C
6008
ENDCHAR
STARTCHAR abreve
ENCODING 259
SWIDTH 505 0
DWIDTH 14 0
BBX 12 18 1 0
BITMAP
1100
1B00
0E00
0000
0E00
1F00
0180
00C0
0060
0E60
7FF0
E0F0
8030
8030
8010
C000
7FF0
1F80
ENDCHAR
STARTCHAR Aogonek
ENCODING 260
SWIDTH 562 0
DWIDTH 16 0
BBX 15 25 1 -4
BITMAP
0F80
30C0
2060
6020
4030
4010
4018
4018
4008
C008
C008
C00C
FFFC
C00C
400C
C00C
400C
400C
400C
600C
6038
0060
0060
0060
003E
ENDCHAR
STARTCHAR aogonek
ENCODING 261
SWIDTH 505 0
DWIDTH 14 0
BBX 12 17 1 -3
BITMAP
0E00
1F00
0180
00C0
0060
0E60
7FF0
E0F0
8030
8030
8010
C000
7FF0
1F80
0100
0100
01F0
ENDCHAR
STARTCHAR Cacute
ENCODING 262
SWIDTH 515 0
DWIDTH 14 0
BBX 13 23 1 0
BITMAP
0180
0300
0600
0400
0000
03C0
0FC0
1C40
3080
2000
4000
C000
8000
8000
8000
8000
8000
8000
8000
C000
6078
7FF0
1E00
ENDCHAR
STARTCHAR cacute
ENCODING 263
SWIDTH 449 0
DWIDTH 13 0
BBX 11 18 1 0
BITMAP
0300
0600
0C00
0800
0000
0000
1F00
3B80
6080
C080
8000
8000
8000
8000
C000
E000
7FE0
1FC0
ENDCHAR
STARTCHAR Ccircumflex
ENCODING 264
SWIDTH 515 0
DWIDTH 14 0
BBX 13 24 1 0
BITMAP
0200
0700
0F80
1DC0
38C0
0000
03C0
0FC0
1C40
3080
2000
4000
C000
8000
8000
8000
8000
8000
8000
8000
C000
6078
7FF0
1E00
ENDCHAR
STARTCHAR ccircumflex
ENCODING 265
SWIDTH 449 0
DWIDTH 13 0
BBX 11 20 1 0
BITMAP
0600
0E00
0F00
3B80
7180
0000
0000
0000
1F00
3B80
6080
C080
8000
8000
8000
8000
C000
E000
7FE0
1FC0
ENDCHAR
STARTCHAR Cdotaccent
ENCODING 266
SWIDTH 515 0
DWIDTH 14 0
BBX 13 22 1 0
BITMAP
0200
0200
0000
0000
03C0
0FC0
1C40
3080
2000
4000
C000
8000
8000
8000
8000
8000
8000
8000
C000
6078
7FF0
1E00
ENDCHAR
STARTCHAR cdotaccent
ENCODING 267
SWIDTH 449 0
DWIDTH 13 0
BBX 11 15 1 0
BITMAP
0C00
0C00
0000
1F00
3B80
6080
C080
8000
8000
8000
8000
C000
E000
7FE0
1FC0
ENDCHAR
STARTCHAR Ccaron
ENCODING 268
SWIDTH 515 0
DWIDTH 14 0
BBX 13 23 1 0
BITMAP
0C60
07C0
0180
0000
0000
03C0
0FC0
1C40
3080
2000
4000
C000
8000
8000
8000
8000
8000
8000
8000
C000
6078
7FF0
1E00
ENDCHAR
STARTCHAR ccaron
ENCODING 269
SWIDTH 449 0
DWIDTH 13 0
BBX 11 17 1 0
BITMAP
3180
1F00
0E00
0000
0000
1F00
3B80
6080
C080
8000
8000
8000
8000
C000
E000
7FE0
1FC0
ENDCHAR
STARTCHAR Dcaron
ENCODING 270
SWIDTH 741 0
DWIDTH 21 0
BBX 19 21 1 0
BITMAP
031800
01F000
006000
0C0000
FFE000
81F800
018E00
018700
008180
0080C0
0080C0
00C060
00C060
00C060
00C060
00C060
00C0E0
0040C0
000380
03DF00
01FC00
ENDCHAR
STARTCHAR dcaron
ENCODING 271
SWIDTH 582 0
DWIDTH 16 0
BBX 15 21 1 0
BITMAP
0004
0084
00C6
00E6
0066
0066
0060
0030
3C30
7F30
E1F0
C0F0
C070
8030
8030
8070
C078
C0D8
6398
7F18
3C00
ENDCHAR
STARTCHAR Dcroat
ENCODING 272
SWIDTH 741 0
DWIDTH 21 0
BBX 19 18 1 0
BITMAP
0C0000
FFE000
81F800
018E00
018700
008180
0080C0
0080C0
00E060
07F060
04C060
00C060
00C060
00C0E0
0040C0
000380
03DF00
01FC00
ENDCHAR
STARTCHAR dcroat
ENCODING 273
SWIDTH 524 0
DWIDTH 15 0
BBX 14 20 1 0
BITMAP
00C0
00C0
00E0
0070
07FC
0470
0030
1830
7E30
7FB0
E0F0
C070
8030
8030
8078
C078
C0D8
C398
7F18
3C00
ENDCHAR
STARTCHAR Emacron
ENCODING 274
SWIDTH 524 0
DWIDTH 15 0
BBX 12 21 1 0
BITMAP
1F80
1FC0
2000
0000
FFF0
8010
C000
C000
C000
C000
C3E0
FF80
C000
8000
8000
8000
8000
8000
8000
FFF0
7FE0
ENDCHAR
STARTCHAR emacron
ENCODING 275
SWIDTH 515 0
DWIDTH 14 0
BBX 13 18 1 0
BITMAP
1F80
3DC0
0000
0400
3F00
6180
4080
C080
8080
8380
EF00
BC00
8000
C000
4000
7000
3FF8
0FC0
ENDCHAR
STARTCHAR Ebreve
ENCODING 276
SWIDTH 524 0
DWIDTH 15 0
BBX 12 22 1 0
BITMAP
1180
0B00
0600
0000
0000
FFF0
8010
C000
C000
C000
C000
C3E0
FF80
C000
8000
8000
8000
8000
8000
8000
FFF0
7FE0
ENDCHAR
STARTCHAR ebreve
ENCODING 277
SWIDTH 515 0
DWIDTH 14 0
BBX 13 19 1 0
BITMAP
0880
0D80
0700
0000
0400
3F00
6180
4080
C080
8080
8380
EF00
BC00
8000
C000
4000
7000
3FF8
0FC0
ENDCHAR
STARTCHAR Edotaccent
ENCODING 278
SWIDTH 524 0
DWIDTH 15 0
BBX 12 21 1 0
BITMAP
0600
0600
0000
0000
FFF0
8010
C000
C000
C000
C000
C3E0
FF80
C000
8000
8000
8000
8000
8000
8000
FFF0
7FE0
ENDCHAR
STARTCHAR edotaccent
ENCODING 279
SWIDTH 515 0
DWIDTH 14 0
BBX 13 18 1 0
BITMAP
0C00
0C00
0000
0400
3F00
6180
4080
C080
8080
8380
EF00
BC00
8000
C000
4000
7000
3FF8
0FC0
ENDCHAR
STARTCHAR Eogonek
ENCODING 280
SWIDTH 524 0
DWIDTH 15 0
BBX 12 21 1 -4
BITMAP
FFF0
8010
C000
C000
C000
C000
C3E0
FF80
C000
8000
8000
8000
8000
8000
8000
FFF0
7FE0
0100
0300
0300
01F0
ENDCHAR
STARTCHAR eogonek
ENCODING 281
SWIDTH 515 0
DWIDTH 14 0
BBX 13 19 1 -4
BITMAP
0400
3F00
6180
4080
C080
8080
8380
EF00
BC00
8000
C000
4000
7000
3FF8
0FC0
0300
0200
0300
01F0
ENDCHAR
STARTCHAR Ecaron
ENCODING 282
SWIDTH 524 0
DWIDTH 15 0
BBX 12 21 1 0
BITMAP
18C0
0F80
0300
0000
FFF0
8010
C000
C000
C000
C000
C3E0
FF80
C000
8000
8000
8000
8000
8000
8000
FFF0
7FE0
ENDCHAR
STARTCHAR ecaron
ENCODING 283
SWIDTH 515 0
DWIDTH 14 0
BBX 13 19 1 0
BITMAP
38C0
0F80
0700
0000
0400
3F00
6180
4080
C080
8080
8380
EF00
BC00
8000
C000
4000
7000
3FF8
0FC0
ENDCHAR
STARTCHAR Gcircumflex
ENCODING 284
SWIDTH 571 0
DWIDTH 16 0
BBX 15 24 1 -2
BITMAP
0060
00E0
00F0
03B8
0718
0000
0000
0030
01F8
0704
0C00
3000
6000
4000
C3F8
81FC
800C
800C
C00C
601C
7FFC
1E0C
000C
0006
ENDCHAR
STARTCHAR gcircumflex
ENCODING 285
SWIDTH 366 0
DWIDTH 10 0
BBX 14 34 -4 -14
BITMAP
00C0
00E0
01F0
03B8
0718
0000
0000
0000
0020
00F0
0198
0208
0608
040C
040C
041C
041C
073C
03EC
000C
000C
000C
000C
0004
0004
0004
4004
C004
C00C
600C
380C
1F18
07F0
00E0
ENDCHAR
STARTCHAR Gbreve
ENCODING 286
SWIDTH 571 0
DWIDTH 16 0
BBX 15 20 1 -2
BITMAP
08C0
0580
0300
0030
01F8
0704
0C00
3000
6000
4000
C3F8
81FC
800C
800C
C00C
601C
7FFC
1E0C
000C
0006
ENDCHAR
STARTCHAR gbreve
ENCODING 287
SWIDTH 366 0
DWIDTH 10 0
BBX 14 29 -4 -14
BITMAP
0230
01E0
00C0
0020
00F0
0198
0208
0608
040C
040C
041C
041C
073C
03EC
000C
000C
000C
000C
0004
0004
0004
4004
C004
C00C
600C
380C
1F18
07F0
00E0
ENDCHAR
STARTCHAR Gdotaccent
ENCODING 288
SWIDTH 571 0
DWIDTH 16 0
BBX 15 19 1 -2
BITMAP
00C0
00C0
0030
01F8
0704
0C00
3000
6000
4000
C3F8
81FC
800C
800C
C00C
601C
7FFC
1E0C
000C
0006
ENDCHAR
STARTCHAR gdotaccent
ENCODING 289
SWIDTH 366 0
DWIDTH 10 0
BBX 14 29 -4 -14
BITMAP
00C0
00C0
0000
0020
00F0
0198
0208
0608
040C
040C
041C
041C
073C
03EC
000C
000C
000C
000C
0004
0004
0004
4004
C004
C00C
600C
380C
1F18
07F0
00E0
ENDCHAR
STARTCHAR Gcommaaccent
ENCODING 290
SWIDTH 571 0
DWIDTH 16 0
BBX 15 24 1 -9
BITMAP
0030
01F8
0704
0C00
3000
6000
4000
C3F8
81FC
800C
800C
C00C
601C
7FFC
1E0C
000C
0006
0000
0300
0300
0300
0300
0300
0200
ENDCHAR
STARTCHAR gcommaaccent
ENCODING 291
SWIDTH 366 0
DWIDTH 10 0
BBX 14 38 -4 -14
BITMAP
0080
00C0
00C0
00C0
00C0
0040
0000
0000
0000
0000
0000
0000
0020
00F0
0198
0208
0608
040C
040C
041C
041C
073C
03EC
000C
000C
000C
000C
0004
0004
0004
4004
C004
C00C
600C
380C
1F18
07F0
00E0
ENDCHAR
STARTCHAR Hcircumflex
ENCODING 292
SWIDTH 524 0
DWIDTH 15 0
BBX 14 26 0 0
BITMAP
0180
0380
07C0
0EE0
1C60
0000
0000
0008
4008
4008
4018
4018
6018
6018
6018
6078
21F8
2708
7C08
F008
3008
3008
3008
300C
300C
100C
ENDCHAR
STARTCHAR hcircumflex
ENCODING 293
SWIDTH 427 0
DWIDTH 12 0
BBX 11 22 0 0
BITMAP
0300
0700
8780
9DC0
D8C0
C000
C000
4000
4000
6600
7F00
7380
60C0
2040
2040
2060
2060
2060
3060
3060
3060
3040
ENDCHAR
STARTCHAR hbar
ENCODING 295
SWIDTH 427 0
DWIDTH 12 0
BBX 13 20 -2 0
BITMAP
2000
2000
3000
3000
3C00
FE00
9000
1980
1FC0
1CE0
1830
1810
0810
0818
0818
0818
0C18
0C18
0C18
0C10
ENDCHAR
STARTCHAR Itilde
ENCODING 296
SWIDTH 167 0
DWIDTH 5 0
BBX 10 19 -2 0
BITMAP
F0C0
9F00
8600
A000
3000
1000
1000
1800
1800
0800
0800
0800
0C00
0C00
0C00
0C00
0C00
0400
0400
ENDCHAR
STARTCHAR itilde
ENCODING 297
SWIDTH 174 0
DWIDTH 5 0
BBX 9 18 -1 0
BITMAP
F180
8F00
8600
8000
0000
0000
1000
1000
1000
1000
1000
1800
1800
1800
1800
1800
0800
0800
ENDCHAR
STARTCHAR imacron
ENCODING 299
SWIDTH 174 0
DWIDTH 5 0
BBX 7 17 -1 0
BITMAP
7C
FE
00
00
00
10
10
10
10
10
18
18
18
18
18
08
08
ENDCHAR
STARTCHAR Ibreve
ENCODING 300
SWIDTH 167 0
DWIDTH 5 0
BBX 5 21 0 0
BITMAP
88
D8
70
00
00
80
C0
40
40
60
60
20
20
20
30
30
30
30
30
10
10
ENDCHAR
STARTCHAR ibreve
ENCODING 301
SWIDTH 174 0
DWIDTH 5 0
BBX 5 17 0 0
BITMAP
98
90
60
00
00
20
20
20
20
20
30
30
30
30
30
10
10
ENDCHAR
STARTCHAR Iogonek
ENCODING 302
SWIDTH 167 0
DWIDTH 5 0
BBX 6 20 0 -4
BITMAP
80
C0
40
40
60
60
20
20
20
30
30
30
30
30
10
70
C0
80
C0
7C
ENDCHAR
STARTCHAR iogonek
ENCODING 303
SWIDTH 174 0
DWIDTH 5 0
BBX 5 21 0 -4
BITMAP
C0
C0
00
00
00
20
20
20
20
20
30
30
30
30
30
10
70
C0
80
80
F8
ENDCHAR
STARTCHAR Idotaccent
ENCODING 304
SWIDTH 167 0
DWIDTH 5 0
BBX 4 20 0 0
BITMAP
80
C0
00
00
80
C0
40
40
60
60
20
20
20
30
30
30
30
30
10
10
ENDCHAR
STARTCHAR dotlessi
ENCODING 305
SWIDTH 174 0
DWIDTH 5 0
BBX 2 12 2 0
BITMAP
80
80
80
80
80
C0
C0
C0
C0
C0
40
40
ENDCHAR
STARTCHAR Jcircumflex
ENCODING 308
SWIDTH 439 0
DWIDTH 12 0
BBX 12 27 1 0
BITMAP
0080
01C0
03E0
0770
0E30
0000
0000
0080
0080
0080
00C0
00C0
00C0
0040
0040
0040
0060
8060
8060
8060
C060
4060
2060
1060
0C40
07C0
0380
ENDCHAR
STARTCHAR jcircumflex
ENCODING 309
SWIDTH 200 0
DWIDTH 6 0
BBX 10 33 -3 -13
BITMAP
0600
0700
0F80
1980
30C0
0000
0000
0000
0000
0400
0600
0600
0200
0300
0300
0300
0300
0300
0180
0180
0180
0180
0180
8180
C080
C080
4080
6080
3080
3880
1F80
0780
0100
ENDCHAR
STARTCHAR Kcommaaccent
ENCODING 310
SWIDTH 468 0
DWIDTH 13 0
BBX 11 25 1 -9
BITMAP
8380
8600
8E00
8C00
9800
B000
E000
C000
E000
F000
D800
CC00
C700
C180
40E0
4060
0000
0000
0000
0C00
0E00
0600
0400
0C00
0C00
ENDCHAR
STARTCHAR kcommaaccent
ENCODING 311
SWIDTH 403 0
DWIDTH 11 0
BBX 11 26 0 -9
BITMAP
8000
8000
C000
C000
4080
4180
4300
6600
6C00
7800
3000
3000
3000
3800
3F00
63E0
60E0
0000
0000
0000
0400
0E00
0600
0600
0C00
0C00
ENDCHAR
STARTCHAR Lacute
ENCODING 313
SWIDTH 346 0
DWIDTH 10 0
BBX 8 20 1 0
BITMAP
02
0C
18
10
00
40
C0
C0
C0
C0
C0
80
80
80
80
80
80
C0
FF
3F
ENDCHAR
STARTCHAR lacute
ENCODING 314
SWIDTH 120 0
DWIDTH 3 0
BBX 4 21 0 0
BITMAP
30
60
C0
80
00
40
40
40
40
40
60
60
60
60
60
60
60
60
60
40
40
ENDCHAR
STARTCHAR Lcommaaccent
ENCODING 315
SWIDTH 346 0
DWIDTH 10 0
BBX 8 24 1 -9
BITMAP
40
C0
C0
C0
C0
C0
80
80
80
80
80
80
C0
FF
3F
00
00
00
18
18
18
18
18
10
ENDCHAR
STARTCHAR lcommaaccent
ENCODING 316
SWIDTH 120 0
DWIDTH 3 0
BBX 3 25 0 -9
BITMAP
40
40
40
40
40
60
60
60
60
60
60
60
60
60
40
40
00
00
00
40
60
60
60
C0
40
ENDCHAR
STARTCHAR Lcaron
ENCODING 317
SWIDTH 346 0
DWIDTH 10 0
BBX 8 20 1 0
BITMAP
08
08
08
0C
0C
4C
C0
C0
C0
C0
C0
80
80
80
80
80
80
C0
FF
3F
ENDCHAR
STARTCHAR lcaron
ENCODING 318
SWIDTH 222 0
DWIDTH 6 0
BBX 5 20 1 0
BITMAP
10
10
18
18
98
98
80
80
80
C0
C0
C0
C0
C0
C0
C0
C0
C0
80
80
ENDCHAR
STARTCHAR Ldot
ENCODING 319
SWIDTH 346 0
DWIDTH 10 0
BBX 8 15 1 0
BITMAP
40
C0
C0
C0
C0
C0
80
98
BC
98
80
80
C0
FF
3F
ENDCHAR
STARTCHAR ldot
ENCODING 320
SWIDTH 333 0
DWIDTH 9 0
BBX 7 16 1 0
BITMAP
80
80
80
80
80
C0
C0
C0
CE
CE
CE
C0
C0
C0
80
80
ENDCHAR
STARTCHAR Lslash
ENCODING 321
SWIDTH 346 0
DWIDTH 10 0
BBX 10 15 0 0
BITMAP
1000
1000
3000
3000
3000
3000
3000
3800
3C00
F000
6000
2000
3000
1FC0
07C0
ENDCHAR
STARTCHAR lslash
ENCODING 322
SWIDTH 120 0
DWIDTH 3 0
BBX 7 16 -2 0
BITMAP
10
18
18
18
18
1C
1E
18
78
D8
18
18
18
18
18
10
ENDCHAR
STARTCHAR Nacute
ENCODING 323
SWIDTH 609 0
DWIDTH 17 0
BBX 15 19 1 0
BITMAP
0180
0300
0600
0400
8000
C010
C018
C01C
E00C
E00C
E006
F006
D002
9802
8C02
8606
C70C
C1FC
8060
ENDCHAR
STARTCHAR nacute
ENCODING 324
SWIDTH 459 0
DWIDTH 13 0
BBX 11 19 1 0
BITMAP
0600
0C00
1800
3000
0000
0000
0000
0F00
BF80
E1C0
C0C0
C040
C060
C060
C060
C020
C020
6020
2020
ENDCHAR
STARTCHAR Ncommaaccent
ENCODING 325
SWIDTH 609 0
DWIDTH 17 0
BBX 15 24 1 -9
BITMAP
8000
C010
C018
C01C
E00C
E00C
E006
F006
D002
9802
8C02
8606
C70C
C1FC
8060
0000
0000
0000
0300
0380
0180
0100
0300
0300
ENDCHAR
STARTCHAR ncommaaccent
ENCODING 326
SWIDTH 459 0
DWIDTH 13 0
BBX 11 21 1 -9
BITMAP
0F00
BF80
E1C0
C0C0
C040
C060
C060
C060
C020
C020
6020
2020
0000
0000
0000
0C00
0C00
0400
0400
0C00
0C00
ENDCHAR
STARTCHAR Ncaron
ENCODING 327
SWIDTH 609 0
DWIDTH 17 0
BBX 15 21 1 0
BITMAP
0C60
03E0
0180
0000
0000
0000
8000
C010
C018
C01C
E00C
E00C
E006
F006
D002
9802
8C02
8606
C70C
C1FC
8060
ENDCHAR
STARTCHAR ncaron
ENCODING 328
SWIDTH 459 0
DWIDTH 13 0
BBX 11 17 1 0
BITMAP
3180
0F00
0600
0000
0000
0F00
BF80
E1C0
C0C0
C040
C060
C060
C060
C020
C020
6020
2020
ENDCHAR
STARTCHAR napostrophe
ENCODING 329
SWIDTH 459 0
DWIDTH 13 0
BBX 11 19 1 0
BITMAP
6000
6000
3000
2000
6000
6000
0000
0F00
BF80
E1C0
C0C0
C040
C060
C060
C060
C020
C020
6020
2020
ENDCHAR
STARTCHAR Omacron
ENCODING 332
SWIDTH 609 0
DWIDTH 17 0
BBX 16 19 0 0
BITMAP
07F0
07B0
0000
0000
0000
0400
1FC0
30F0
6038
400C
4006
C003
4003
4001
6001
3003
3806
1F7C
07F0
ENDCHAR
STARTCHAR omacron
ENCODING 333
SWIDTH 487 0
DWIDTH 14 0
BBX 12 15 1 0
BITMAP
1F80
3D80
0000
0F80
3FC0
60E0
C060
8030
8030
8030
8030
C060
C0E0
7FC0
1F00
ENDCHAR
STARTCHAR Obreve
ENCODING 334
SWIDTH 609 0
DWIDTH 17 0
BBX 16 18 0 0
BITMAP
0220
0360
01C0
0000
0400
1FC0
30F0
6038
400C
4006
C003
4003
4001
6001
3003
3806
1F7C
07F0
ENDCHAR
STARTCHAR obreve
ENCODING 335
SWIDTH 487 0
DWIDTH 14 0
BBX 12 17 1 0
BITMAP
2200
1600
0C00
0000
0000
0F80
3FC0
60E0
C060
8030
8030
8030
8030
C060
C0E0
7FC0
1F00
ENDCHAR
STARTCHAR Ohungarumlaut
ENCODING 336
SWIDTH 609 0
DWIDTH 17 0
BBX 16 20 0 0
BITMAP
0100
0360
06C0
0480
0000
0000
0400
1FC0
30F0
6038
400C
4006
C003
4003
4001
6001
3003
3806
1F7C
07F0
ENDCHAR
STARTCHAR ohungarumlaut
ENCODING 337
SWIDTH 487 0
DWIDTH 14 0
BBX 12 16 1 0
BITMAP
0800
1D80
3300
2600
0F80
3FC0
60E0
C060
8030
8030
8030
8030
C060
C0E0
7FC0
1F00
ENDCHAR
STARTCHAR OE
ENCODING 338
SWIDTH 848 0
DWIDTH 24 0
BBX 23 14 0 0
BITMAP
040000
1F9FFE
30D000
607000
407000
C03004
403FF8
403000
403000
603000
303000
383000
1FF8FE
03CFFC
ENDCHAR
STARTCHAR oe
ENCODING 339
SWIDTH 875 0
DWIDTH 25 0
BBX 23 15 1 -1
BITMAP
000100
0007E0
020C60
1FD830
71F030
C07030
803060
8039C0
803F00
803000
C07000
C0F800
7FCC00
1F07FE
0001F8
ENDCHAR
STARTCHAR Racute
ENCODING 340
SWIDTH 579 0
DWIDTH 16 0
BBX 16 23 0 -1
BITMAP
0060
00C0
0180
0100
0000
7FF0
C038
800C
9006
1806
180E
187C
0FF0
0F00
0C00
0E00
0F00
0D80
04C0
0460
0438
041C
0007
ENDCHAR
STARTCHAR racute
ENCODING 341
SWIDTH 346 0
DWIDTH 10 0
BBX 9 18 0 0
BITMAP
0200
0E00
1800
1000
0000
0600
BF80
E080
4000
4000
4000
4000
6000
6000
2000
3000
3000
1000
ENDCHAR
STARTCHAR Rcommaaccent
ENCODING 342
SWIDTH 579 0
DWIDTH 16 0
BBX 16 26 0 -9
BITMAP
7FF0
C038
800C
9006
1806
180E
187C
0FF0
0F00
0C00
0E00
0F00
0D80
04C0
0460
0438
041C
0007
0000
0000
0180
0180
0080
0080
0180
0100
ENDCHAR
STARTCHAR rcommaaccent
ENCODING 343
SWIDTH 346 0
DWIDTH 10 0
BBX 9 22 0 -9
BITMAP
0600
BF80
E080
4000
4000
4000
4000
6000
6000
2000
3000
3000
1000
0000
0000
0000
0C00
0C00
0C00
0C00
0C00
0800
ENDCHAR
STARTCHAR Rcaron
ENCODING 344
SWIDTH 579 0
DWIDTH 16 0
BBX 16 24 0 -1
BITMAP
0E30
03E0
01C0
0000
0000
0000
7FF0
C038
800C
9006
1806
180E
187C
0FF0
0F00
0C00
0E00
0F00
0D80
04C0
0460
0438
041C
0007
ENDCHAR
STARTCHAR rcaron
ENCODING 345
SWIDTH 346 0
DWIDTH 10 0
BBX 9 17 0 0
BITMAP
6180
1F00
0E00
0000
0600
BF80
E080
4000
4000
4000
4000
6000
6000
2000
3000
3000
1000
ENDCHAR
STARTCHAR Sacute
ENCODING 346
SWIDTH 627 0
DWIDTH 18 0
BBX 16 22 1 0
BITMAP
00C0
0180
0300
0200
0000
03E0
0F78
100C
1000
1000
1800
0E00
0380
01E0
0078
801C
8006
8003
C003
6003
3E0E
07FC
ENDCHAR
STARTCHAR sacute
ENCODING 347
SWIDTH 514 0
DWIDTH 14 0
BBX 14 19 0 0
BITMAP
00C0
0180
0300
0200
0000
0000
0F00
3F80
60C0
60C0
6080
3800
1FE0
0038
0018
400C
E01C
3FF8
0FF0
ENDCHAR
STARTCHAR Scircumflex
ENCODING 348
SWIDTH 627 0
DWIDTH 18 0
BBX 16 24 1 0
BITMAP
0180
01C0
03E0
0660
0C30
0000
0000
03E0
0F78
100C
1000
1000
1800
0E00
0380
01E0
0078
801C
8006
8003
C003
6003
3E0E
07FC
ENDCHAR
STARTCHAR scircumflex
ENCODING 349
SWIDTH 514 0
DWIDTH 14 0
BBX 14 20 0 0
BITMAP
0100
0380
07C0
0EE0
1C60
0000
0000
0F00
3F80
60C0
60C0
6080
3800
1FE0
0038
0018
400C
E01C
3FF8
0FF0
ENDCHAR
STARTCHAR Scedilla
ENCODING 350
SWIDTH 627 0
DWIDTH 18 0
BBX 16 26 1 -9
BITMAP
03E0
0F78
100C
1000
1000
1800
0E00
0380
01E0
0078
801C
8006
8003
C003
6003
3E0E
07F8
0400
0400
0600
03C0
0060
0020
0C20
07E0
0180
ENDCHAR
STARTCHAR scedilla
ENCODING 351
SWIDTH 514 0
DWIDTH 14 0
BBX 14 22 0 -9
BITMAP
0F00
3F80
60C0
60C0
6080
3800
1FE0
0038
0018
400C
E01C
3FF8
0FF0
0800
0800
0C00
03C0
0060
0060
0C60
07C0
0100
ENDCHAR
STARTCHAR Scaron
ENCODING 352
SWIDTH 627 0
DWIDTH 18 0
BBX 16 21 1 0
BITMAP
0C30
03E0
0180
0000
03E0
0F78
100C
1000
1000
1800
0E00
0380
01E0
0078
801C
8006
8003
C003
6003
3E0E
07FC
ENDCHAR
STARTCHAR scaron
ENCODING 353
SWIDTH 514 0
DWIDTH 14 0
BBX 14 17 0 0
BITMAP
1C60
07C0
0380
0000
0F00
3F80
60C0
60C0
6080
3800
1FE0
0038
0018
400C
E01C
3FF8
0FF0
ENDCHAR
STARTCHAR Tcommaaccent
ENCODING 354
SWIDTH 581 0
DWIDTH 16 0
BBX 19 25 0 -8
BITMAP
FFFF00
00EFE0
004040
004000
004000
004000
004000
006000
006000
006000
006000
006000
002000
003000
003000
003000
001800
000000
000000
003000
003000
003000
003000
003000
002000
ENDCHAR
STARTCHAR tcommaaccent
ENCODING 355
SWIDTH 328 0
DWIDTH 9 0
BBX 9 26 0 -9
BITMAP
1800
1800
0800
0800
0800
1800
FF80
7F00
0800
0800
0C00
0C00
0C00
0C00
0C00
0C00
0400
0000
0000
0000
0800
1C00
0C00
0C00
1800
1800
ENDCHAR
STARTCHAR Tcaron
ENCODING 356
SWIDTH 581 0
DWIDTH 16 0
BBX 19 21 0 0
BITMAP
0E3000
03E000
01C000
000000
FFFF00
00EFE0
004040
004000
004000
004000
004000
006000
006000
006000
006000
006000
002000
003000
003000
003000
001800
ENDCHAR
STARTCHAR tcaron
ENCODING 357
SWIDTH 431 0
DWIDTH 12 0
BBX 12 20 0 0
BITMAP
0020
0020
0020
1830
1830
0830
0800
0800
1800
FF80
7F00
0800
0800
0C00
0C00
0C00
0C00
0C00
0C00
0400
ENDCHAR
STARTCHAR Utilde
ENCODING 360
SWIDTH 571 0
DWIDTH 16 0
BBX 15 19 1 0
BITMAP
1E30
33E0
30C0
2000
C010
C030
8030
8030
8030
8010
8010
8018
C018
C018
401C
603C
30EC
3F86
1F00
ENDCHAR
STARTCHAR utilde
ENCODING 361
SWIDTH 501 0
DWIDTH 14 0
BBX 14 18 0 0
BITMAP
1E10
13E0
10C0
1000
0000
4000
C020
C030
C030
4030
4030
6030
6070
2070
30D8
1F88
0F08
000C
ENDCHAR
STARTCHAR Umacron
ENCODING 362
SWIDTH 571 0
DWIDTH 16 0
BBX 15 19 1 0
BITMAP
0FC0
1EE0
0000
0000
C010
C030
8030
8030
8030
8010
8010
8018
C018
C018
401C
603C
30EC
3F86
1F00
ENDCHAR
STARTCHAR umacron
ENCODING 363
SWIDTH 501 0
DWIDTH 14 0
BBX 14 17 0 0
BITMAP
1FC0
1FC0
0000
0000
4000
C020
C030
C030
4030
4030
6030
6070
2070
30D8
1F88
0F08
000C
ENDCHAR
STARTCHAR Ubreve
ENCODING 364
SWIDTH 571 0
DWIDTH 16 0
BBX 15 18 1 0
BITMAP
08C0
0580
0300
C010
C030
8030
8030
8030
8010
8010
8018
C018
C018
401C
603C
30EC
3F86
1F00
ENDCHAR
STARTCHAR ubreve
ENCODING 365
SWIDTH 501 0
DWIDTH 14 0
BBX 14 17 0 0
BITMAP
0980
0D00
0600
0000
4000
C020
C030
C030
4030
4030
6030
6070
2070
30D8
1F88
0F08
000C
ENDCHAR
STARTCHAR Uring
ENCODING 366
SWIDTH 571 0
DWIDTH 16 0
BBX 15 20 1 0
BITMAP
0700
0880
0880
0880
0700
C010
C030
8030
8030
8030
8010
8010
8018
C018
C018
401C
603C
30EC
3F86
1F00
ENDCHAR
STARTCHAR uring
ENCODING 367
SWIDTH 501 0
DWIDTH 14 0
BBX 14 16 0 0
BITMAP
0700
0880
0880
4880
C720
C030
C030
4030
4030
6030
6070
2070
30D8
1F88
0F08
000C
ENDCHAR
STARTCHAR Uhungarumlaut
ENCODING 368
SWIDTH 571 0
DWIDTH 16 0
BBX 15 20 1 0
BITMAP
0400
0EC0
1980
1300
0000
C010
C030
8030
8030
8030
8010
8010
8018
C018
C018
401C
603C
30EC
3F86
1F00
ENDCHAR
STARTCHAR uhungarumlaut
ENCODING 369
SWIDTH 501 0
DWIDTH 14 0
BBX 14 19 0 0
BITMAP
0200
0760
0CC0
0880
0000
0000
4000
C020
C030
C030
4030
4030
6030
6070
2070
30D8
1F88
0F08
000C
ENDCHAR
STARTCHAR Uogonek
ENCODING 370
SWIDTH 571 0
DWIDTH 16 0
BBX 16 19 1 -5
BITMAP
6010
C010
C010
8010
8018
8018
C018
C018
C008
400C
401C
603C
306E
3FC6
1F18
0030
0030
001C
0003
ENDCHAR
STARTCHAR uogonek
ENCODING 371
SWIDTH 501 0
DWIDTH 14 0
BBX 15 17 0 -4
BITMAP
4000
C020
C030
C030
4030
4030
6030
6070
2070
30D8
1F88
0F08
003C
0060
0040
0070
000E
ENDCHAR
STARTCHAR Wcircumflex
ENCODING 372
SWIDTH 703 0
DWIDTH 20 0
BBX 19 24 0 0
BITMAP
006000
007000
00F800
019800
030C00
000000
000000
000000
000000
000000
400100
C00180
C000C0
C000C0
C000C0
C08060
C08060
40C060
40C020
60C020
61E060
3330C0
3E1F80
0C0F00
ENDCHAR
STARTCHAR wcircumflex
ENCODING 373
SWIDTH 656 0
DWIDTH 18 0
BBX 18 20 0 0
BITMAP
004000
00E000
01F000
03B800
071800
000000
000000
000000
400000
400000
400300
C04180
C04180
C04080
C040C0
40E0C0
60E0C0
21B180
3F9F80
0E0E00
ENDCHAR
STARTCHAR Ycircumflex
ENCODING 374
SWIDTH 403 0
DWIDTH 11 0
BBX 11 24 0 0
BITMAP
0600
0700
0F80
1980
3080
0000
C000
4060
6060
6060
3040
18C0
0FC0
0380
0180
0180
0100
0300
0300
0200
0200
0200
0200
0200
ENDCHAR
STARTCHAR ycircumflex
ENCODING 375
SWIDTH 487 0
DWIDTH 14 0
BBX 13 34 0 -14
BITMAP
0300
0380
07C0
0CC0
1860
0000
0000
0000
4010
C010
4010
4010
4018
4018
6018
2018
3038
18F8
0F88
0008
0008
0008
0008
0008
0008
0018
0018
0018
6010
7010
3830
1C60
07E0
0180
ENDCHAR
STARTCHAR Ydieresis
ENCODING 376
SWIDTH 403 0
DWIDTH 11 0
BBX 11 22 0 0
BITMAP
1180
3980
1980
0000
C000
4060
6060
6060
3040
18C0
0FC0
0380
0180
0180
0100
0300
0300
0200
0200
0200
0200
0200
ENDCHAR
STARTCHAR Zacute
ENCODING 377
SWIDTH 571 0
DWIDTH 16 0
BBX 16 23 0 0
BITMAP
0040
0180
0300
0200
0000
0000
7F80
E0C0
0060
0020
0020
0020
0060
0060
0FFE
1FC0
0180
0100
0300
0600
060E
07FF
07F0
ENDCHAR
STARTCHAR zacute
ENCODING 378
SWIDTH 459 0
DWIDTH 13 0
BBX 11 19 1 0
BITMAP
0600
0C00
1800
1000
0800
FF00
C300
0100
0100
0100
0300
3FC0
FE00
0C00
1800
3000
7060
7FE0
3F00
ENDCHAR
STARTCHAR Zdotaccent
ENCODING 379
SWIDTH 571 0
DWIDTH 16 0
BBX 16 21 0 0
BITMAP
0200
0200
0000
0000
7F80
E0C0
0060
0020
0020
0020
0060
0060
0FFE
1FC0
0180
0100
0300
0600
060E
07FF
07F0
ENDCHAR
STARTCHAR zdotaccent
ENCODING 380
SWIDTH 459 0
DWIDTH 13 0
BBX 11 18 1 0
BITMAP
0400
0600
0000
0800
FF00
C300
0100
0100
0100
0300
3FC0
FE00
0C00
1800
3000
7060
7FE0
3F00
ENDCHAR
STARTCHAR Zcaron
ENCODING 381
SWIDTH 571 0
DWIDTH 16 0
BBX 16 22 0 0
BITMAP
1860
07C0
0380
0000
0000
7F80
E0C0
0060
0020
0020
0020
0060
0060
0FFE
1FC0
0180
0100
0300
0600
060E
07FF
07F0
ENDCHAR
STARTCHAR zcaron
ENCODING 382
SWIDTH 459 0
DWIDTH 13 0
BBX 11 19 1 0
BITMAP
6300
BE00
1C00
0000
0800
FF00
C300
0100
0100
0100
0300
3FC0
FE00
0C00
1800
3000
7060
7FE0
3F00
ENDCHAR
STARTCHAR florin
ENCODING 402
SWIDTH 376 0
DWIDTH 11 0
BBX 16 27 -3 -7
BITMAP
0070
00FC
0186
0303
0301
0200
0200
0200
0200
0200
0200
1FF8
1B70
0300
0300
0300
0300
0300
0300
0300
0300
0300
C300
6200
7200
1E00
0E00
ENDCHAR
STARTCHAR AEacute
ENCODING 508
SWIDTH 960 0
DWIDTH 27 0
BBX 25 24 1 0
BITMAP
00030000
00060000
000C0000
0F880000
30C00000
20600000
60200000
4037FF00
40140080
401C0000
401C0000
400C0000
C00C0000
C00C1F00
C00FFC00
FFFC0000
C00C0000
400C0000
C00C0000
400C0000
400C0000
400C0000
600FFF80
600BFE00
ENDCHAR
STARTCHAR aeacute
ENCODING 509
SWIDTH 881 0
DWIDTH 25 0
BBX 23 20 1 -1
BITMAP
000C00
001800
003000
002000
000000
0E03C0
1F07E0
018C30
00D810
007010
0E7030
7FF060
E0FFC0
803600
803000
801800
C00C00
7FFF00
1F83FE
0000F0
ENDCHAR
STARTCHAR Oslashacute
ENCODING 510
SWIDTH 609 0
DWIDTH 17 0
BBX 16 23 0 -3
BITMAP
0040
00C0
0180
0300
0200
0020
0430
1FE0
30F0
6078
404C
4046
C0C3
4083
4181
6181
3103
3B06
1F7C
07F0
0600
0400
0800
ENDCHAR
STARTCHAR oslashacute
ENCODING 511
SWIDTH 487 0
DWIDTH 14 0
BBX 12 17 1 0
BITMAP
0100
0300
0E00
0C00
0000
0220
1FE0
71E0
C0E0
81B0
8330
8330
8630
CC60
D8E0
7FC0
3F00
ENDCHAR
STARTCHAR Scommaaccent
ENCODING 536
SWIDTH 627 0
DWIDTH 18 0
BBX 16 26 1 -9
BITMAP
03E0
0F78
100C
1000
1000
1800
0E00
0380
01E0
0078
801C
8006
8003
C003
6003
3E0E
07F8
0000
0000
0000
0300
0300
0100
0100
0300
0200
ENDCHAR
STARTCHAR scommaaccent
ENCODING 537
SWIDTH 514 0
DWIDTH 14 0
BBX 14 22 0 -9
BITMAP
0F00
3F80
60C0
60C0
6080
3800
1FE0
0038
0018
400C
E01C
3FF8
0FF0
0000
0000
0000
0300
0300
0100
0100
0300
0200
ENDCHAR
STARTCHAR circumflex
ENCODING 710
SWIDTH 375 0
DWIDTH 11 0
BBX 8 5 1 15
BITMAP
18
1C
3E
77
E3
ENDCHAR
STARTCHAR caron
ENCODING 711
SWIDTH 375 0
DWIDTH 11 0
BBX 8 3 1 14
BITMAP
E3
3E
1C
ENDCHAR
STARTCHAR breve
ENCODING 728
SWIDTH 224 0
DWIDTH 6 0
BBX 5 3 1 11
BITMAP
98
D0
60
ENDCHAR
STARTCHAR dotaccent
ENCODING 729
SWIDTH 152 0
DWIDTH 4 0
BBX 2 2 1 13
BITMAP
C0
40
ENDCHAR
STARTCHAR ring
ENCODING 730
SWIDTH 333 0
DWIDTH 9 0
BBX 5 5 3 11
BITMAP
70
90
88
90
60
ENDCHAR
STARTCHAR ogonek
ENCODING 731
SWIDTH 254 0
DWIDTH 7 0
BBX 5 5 1 -4
BITMAP
70
C0
80
C0
78
ENDCHAR
STARTCHAR tilde
ENCODING 732
SWIDTH 402 0
DWIDTH 11 0
BBX 9 4 1 11
BITMAP
F080
9F00
8600
8000
ENDCHAR
STARTCHAR hungarumlaut
ENCODING 733
SWIDTH 264 0
DWIDTH 7 0
BBX 6 4 1 12
BITMAP
20
EC
D8
90
ENDCHAR
STARTCHAR Wgrave
ENCODING 7808
SWIDTH 703 0
DWIDTH 20 0
BBX 19 20 0 0
BITMAP
008000
006000
003000
001000
000000
000000
400100
C00180
C000C0
C000C0
C000C0
C08060
C08060
40C060
40C020
60C020
61E060
3330C0
3E1F80
0C0F00
ENDCHAR
STARTCHAR wgrave
ENCODING 7809
SWIDTH 656 0
DWIDTH 18 0
BBX 18 16 0 0
BITMAP
010000
00C000
006000
002000
400000
400000
400300
C04180
C04180
C04080
C040C0
40E0C0
60E0C0
21B180
3F9F80
0E0E00
ENDCHAR
STARTCHAR Wacute
ENCODING 7810
SWIDTH 703 0
DWIDTH 20 0
BBX 19 19 0 0
BITMAP
002000
00E000
018000
010000
000000
400100
C00180
C000C0
C000C0
C000C0
C08060
C08060
40C060
40C020
60C020
61E060
3330C0
3E1F80
0C0F00
ENDCHAR
STARTCHAR wacute
ENCODING 7811
SWIDTH 656 0
DWIDTH 18 0
BBX 18 18 0 0
BITMAP
002000
00E000
018000
010000
000000
000000
400000
400000
400300
C04180
C04180
C04080
C040C0
40E0C0
60E0C0
21B180
3F9F80
0E0E00
ENDCHAR
STARTCHAR Wdieresis
ENCODING 7812
SWIDTH 703 0
DWIDTH 20 0
BBX 19 19 0 0
BITMAP
011800
039800
019800
000000
000000
400100
C00180
C000C0
C000C0
C000C0
C08060
C08060
40C060
40C020
60C020
61E060
3330C0
3E1F80
0C0F00
ENDCHAR
STARTCHAR wdieresis
ENCODING 7813
SWIDTH 656 0
DWIDTH 18 0
BBX 18 15 0 0
BITMAP
031000
033800
033000
400000
400000
400300
C04180
C04180
C04080
C040C0
40E0C0
60E0C0
21B180
3F9F80
0E0E00
ENDCHAR
STARTCHAR Ygrave
ENCODING 7922
SWIDTH 403 0
DWIDTH 11 0
BBX 11 23 0 0
BITMAP
1000
0C00
0600
0300
0000
C000
4060
6060
6060
3040
18C0
0FC0
0380
0180
0180
0100
0300
0300
0200
0200
0200
0200
0200
ENDCHAR
STARTCHAR ygrave
ENCODING 7923
SWIDTH 487 0
DWIDTH 14 0
BBX 13 30 0 -14
BITMAP
0400
0300
0180
0080
4010
C010
4010
4010
4018
4018
6018
2018
3038
18F8
0F88
0008
0008
0008
0008
0008
0008
0018
0018
0018
6010
7010
3830
1C60
07E0
0180
ENDCHAR
STARTCHAR endash
ENCODING 8211
SWIDTH 287 0
DWIDTH 8 0
BBX 8 2 0 7
BITMAP
7E
FF
ENDCHAR
STARTCHAR emdash
ENCODING 8212
SWIDTH 512 0
DWIDTH 14 0
BBX 13 2 0 7
BITMAP
1FF8
FFF8
ENDCHAR
STARTCHAR quoteleft
ENCODING 8216
SWIDTH 102 0
DWIDTH 3 0
BBX 1 6 1 14
BITMAP
80
80
80
80
80
80
ENDCHAR
STARTCHAR quoteright
ENCODING 8217
SWIDTH 102 0
DWIDTH 3 0
BBX 1 6 1 14
BITMAP
80
80
80
80
80
80
ENDCHAR
STARTCHAR quotesinglbase
ENCODING 8218
SWIDTH 102 0
DWIDTH 3 0
BBX 2 7 1 -1
BITMAP
80
80
80
80
80
C0
80
ENDCHAR
STARTCHAR quotedblleft
ENCODING 8220
SWIDTH 234 0
DWIDTH 7 0
BBX 6 8 0 14
BITMAP
88
C8
CC
4C
4C
6C
6C
2C
ENDCHAR
STARTCHAR quotedblright
ENCODING 8221
SWIDTH 234 0
DWIDTH 7 0
BBX 6 8 0 14
BITMAP
88
C8
CC
4C
4C
6C
6C
2C
ENDCHAR
STARTCHAR quotedblbase
ENCODING 8222
SWIDTH 341 0
DWIDTH 10 0
BBX 6 9 2 -4
BITMAP
08
88
C8
C8
C8
4C
6C
6C
08
ENDCHAR
STARTCHAR dagger
ENCODING 8224
SWIDTH 375 0
DWIDTH 11 0
BBX 9 18 1 0
BITMAP
1000
1000
1000
1000
1800
0800
FF80
FB80
0800
0800
0800
0C00
0C00
0C00
0C00
0C00
0C00
0C00
ENDCHAR
STARTCHAR daggerdbl
ENCODING 8225
SWIDTH 375 0
DWIDTH 11 0
BBX 14 21 -2 0
BITMAP
0200
0600
0200
0300
0300
0300
0100
0100
FFFC
010C
0100
0FF0
7FF8
0100
0100
0180
0180
0180
0180
0180
0180
ENDCHAR
STARTCHAR bullet
ENCODING 8226
SWIDTH 341 0
DWIDTH 10 0
BBX 5 5 3 5
BITMAP
60
F0
F8
F8
70
ENDCHAR
STARTCHAR ellipsis
ENCODING 8230
SWIDTH 612 0
DWIDTH 17 0
BBX 15 5 1 0
BITMAP
618E
738E
F3CE
F38E
618C
ENDCHAR
STARTCHAR guilsinglleft
ENCODING 8249
SWIDTH 487 0
DWIDTH 14 0
BBX 13 12 0 0
BITMAP
0010
0038
0060
01C0
0300
0E00
1800
3000
6000
FF80
1FE0
0030
ENDCHAR
STARTCHAR guilsinglright
ENCODING 8250
SWIDTH 403 0
DWIDTH 11 0
BBX 10 13 1 0
BITMAP
C000
E000
7800
1F80
01C0
00C0
0180
0300
0E00
1800
7000
E000
8000
ENDCHAR
STARTCHAR fraction
ENCODING 8260
SWIDTH 309 0
DWIDTH 9 0
BBX 8 21 0 0
BITMAP
01
01
03
03
02
02
06
06
04
0C
0C
18
18
18
30
30
20
60
60
C0
C0
ENDCHAR
STARTCHAR Euro
ENCODING 8364
SWIDTH 741 0
DWIDTH 21 0
BBX 20 19 0 0
BITMAP
0007C0
000E40
001000
006000
00FC00
7FFF00
F30000
030000
020000
021E00
07FC00
FE0000
040000
040000
060000
020000
0300F0
01FFE0
00FE00
ENDCHAR
STARTCHAR trademark
ENCODING 8482
SWIDTH 1116 0
DWIDTH 31 0
BBX 30 17 0 0
BITMAP
FFFC6008
0FFFE018
0040F018
00403818
00403838
00403FF8
004037D8
00603008
00603008
0060300C
0060300C
0060300C
0020300C
0030300C
0030300C
00303004
00380004
ENDCHAR
STARTCHAR minus
ENCODING 8722
SWIDTH 287 0
DWIDTH 8 0
BBX 8 2 0 7
BITMAP
7E
FF
ENDCHAR
STARTCHAR commaaccent
ENCODING 63171
SWIDTH 375 0
DWIDTH 11 0
BBX 2 6 3 -9
BITMAP
C0
C0
40
40
C0
C0
ENDCHAR
STARTCHAR fi
ENCODING 64257
SWIDTH 551 0
DWIDTH 15 0
BBX 13 21 0 -1
BITMAP
0380
07E0
0C30
1818
10C8
1080
1000
1000
1040
1060
1060
FFE0
DFE0
0860
0C60
0430
0630
0330
0330
0130
0020
ENDCHAR
STARTCHAR fl
ENCODING 64258
SWIDTH 723 0
DWIDTH 20 0
BBX 13 20 0 0
BITMAP
0380
07E0
0C30
1818
1048
1040
1060
1060
1060
1060
1060
FFE0
DFE0
0860
0C60
0460
0660
0360
0360
0140
ENDCHAR
STARTCHAR .notdef
ENCODING -1
SWIDTH 375 0
DWIDTH 11 0
BBX 1 1 0 0
BITMAP
00
ENDCHAR
STARTCHAR .null
ENCODING -1
SWIDTH 0 0
DWIDTH 0 0
BBX 1 1 0 0
BITMAP
00
ENDCHAR
STARTCHAR nonmarkingreturn
ENCODING -1
SWIDTH 375 0
DWIDTH 11 0
BBX 1 1 0 0
BITMAP
00
ENDCHAR
ENDFONT
